<?xml version="1.0" encoding="UTF-8"?>
<svg version="1.1" xmlns="http://www.w3.org/2000/svg" width="500" height="342">
<path d="M0 0 C3.19540676 0.9401362 4.80062945 2.49504273 7.17578125 4.8203125 C11.38247577 8.80298187 15.68897594 12.29090516 20.36328125 15.6953125 C22.0365234 16.93649681 23.70316382 18.18662752 25.36328125 19.4453125 C26.50796875 20.30382812 26.50796875 20.30382812 27.67578125 21.1796875 C28.23265625 21.67984375 28.78953125 22.18 29.36328125 22.6953125 C29.36328125 23.3553125 29.36328125 24.0153125 29.36328125 24.6953125 C30.05808594 24.91574219 30.75289062 25.13617188 31.46875 25.36328125 C35.07434807 27.02253758 37.75007724 29.38679967 40.67578125 32.0078125 C41.92032969 33.09812061 43.16648546 34.18659614 44.4140625 35.2734375 C45.06068848 35.83740234 45.70731445 36.40136719 46.37353516 36.98242188 C49.6517718 39.80452105 53.00228993 42.53520584 56.36328125 45.2578125 C57.03311035 45.80074951 57.70293945 46.34368652 58.39306641 46.90307617 C63.31634983 50.87893383 68.29408596 54.78197891 73.28515625 58.67211914 C77.77909653 62.19292685 82.1338283 65.85791504 86.46948242 69.57080078 C90.35612727 72.88371683 94.33091868 76.06193745 98.36328125 79.1953125 C103.03521462 82.82623132 107.61212008 86.54206106 112.11328125 90.3828125 C118.56133277 95.88346982 125.09533792 101.24618115 131.87109375 106.33984375 C132.47050781 106.79286865 133.06992187 107.24589355 133.6875 107.71264648 C134.87065737 108.60466629 136.05805772 109.49109116 137.25 110.37133789 C138.6575061 111.43269076 140.01564571 112.5589051 141.36328125 113.6953125 C141.36328125 114.3553125 141.36328125 115.0153125 141.36328125 115.6953125 C142.04390625 115.8603125 142.72453125 116.0253125 143.42578125 116.1953125 C147.84842144 118.45368196 150.73958824 121.48266408 153.36328125 125.6953125 C154.30898172 129.47885386 154.25304906 133.0928805 154.15795898 136.9765625 C154.15898117 138.07988419 154.16000336 139.18320587 154.16105652 140.31996155 C154.15620184 143.94607842 154.10185483 147.56963867 154.046875 151.1953125 C154.03381142 153.71735255 154.02385085 156.23941042 154.01686096 158.76147461 C153.99291762 164.70795878 153.93782092 170.65363049 153.86741453 176.59969807 C153.78896148 183.37350725 153.75063244 190.14736164 153.71554649 196.9215126 C153.64253059 210.84661446 153.51953916 224.77091357 153.36328125 238.6953125 C150.16418051 240.41005058 148.51358882 240.87637135 144.89453125 240.3515625 C138.88760219 239.60289832 132.91023261 239.39321273 126.86328125 239.1953125 C124.72776337 239.12542282 122.5923411 239.05254285 120.45703125 238.9765625 C119.52568359 238.94626953 118.59433594 238.91597656 117.63476562 238.88476562 C115.13850014 238.74020577 112.70315641 238.51936502 110.22143555 238.24316406 C75.53473599 234.69376375 40.27398893 235.37381586 5.46069336 235.43457031 C-1.11975383 235.44594586 -7.70003876 235.43919407 -14.28048038 235.42768192 C-60.36268903 235.35956545 -106.76024715 235.81319882 -152.63671875 240.6953125 C-154.75039361 237.52480022 -154.89021102 236.74472641 -154.91087341 233.11624146 C-154.92084854 232.17695801 -154.93082367 231.23767456 -154.94110107 230.26992798 C-154.94176575 229.24128632 -154.94243042 228.21264465 -154.94311523 227.15283203 C-154.95560051 225.52562225 -154.95560051 225.52562225 -154.96833801 223.86553955 C-154.99248736 220.26969849 -155.00121607 216.67403863 -155.0078125 213.078125 C-155.01677477 210.58332259 -155.02589653 208.08852075 -155.03517151 205.59371948 C-155.05167727 200.35983534 -155.05939772 195.1259956 -155.06225586 189.89208984 C-155.06548917 184.51430705 -155.0866278 179.13693102 -155.1237793 173.75927734 C-155.16792972 167.27186193 -155.1877187 160.78482998 -155.18898201 154.29726791 C-155.19319374 151.82288738 -155.20566592 149.34850677 -155.22649956 146.87421036 C-155.25331149 143.41454939 -155.24861778 139.95629334 -155.23608398 136.49658203 C-155.25833542 134.95969223 -155.25833542 134.95969223 -155.28103638 133.39175415 C-155.20906589 126.42646623 -155.20906589 126.42646623 -152.2559967 122.65402222 C-151.39163498 122.00764801 -150.52727325 121.3612738 -149.63671875 120.6953125 C-148.80914062 119.98890625 -147.9815625 119.2825 -147.12890625 118.5546875 C-146.26523438 117.85859375 -145.4015625 117.1625 -144.51171875 116.4453125 C-143.55136719 115.66800781 -142.59101563 114.89070313 -141.6015625 114.08984375 C-140.62316406 113.29964844 -139.64476562 112.50945312 -138.63671875 111.6953125 C-136.78161425 110.17562328 -134.92742921 108.65481088 -133.07421875 107.1328125 C-127.20552733 102.33115588 -121.28245131 97.59943451 -115.3515625 92.875 C-105.4262109 84.95460256 -95.58147333 76.93361838 -85.76171875 68.8828125 C-84.48361328 67.83867187 -84.48361328 67.83867187 -83.1796875 66.7734375 C-81.38732758 65.30871326 -79.59859613 63.83954337 -77.8125 62.3671875 C-76.90886719 61.62984375 -76.00523437 60.8925 -75.07421875 60.1328125 C-74.26855469 59.47152344 -73.46289062 58.81023437 -72.6328125 58.12890625 C-70.63671875 56.6953125 -70.63671875 56.6953125 -68.63671875 56.6953125 C-68.30671875 55.7053125 -67.97671875 54.7153125 -67.63671875 53.6953125 C-65.58577374 51.96012032 -63.54511477 50.34709097 -61.38671875 48.7578125 C-60.23536668 47.89494528 -59.08432079 47.03166934 -57.93359375 46.16796875 C-57.37607422 45.75434082 -56.81855469 45.34071289 -56.24414062 44.91455078 C-54.74418366 43.77682522 -53.28976414 42.57974813 -51.83984375 41.37890625 C-49.63671875 39.6953125 -49.63671875 39.6953125 -47.63671875 39.6953125 C-47.63671875 39.0353125 -47.63671875 38.3753125 -47.63671875 37.6953125 C-46.13964844 36.30664062 -46.13964844 36.30664062 -44.05859375 34.7265625 C-43.30964844 34.15550781 -42.56070313 33.58445313 -41.7890625 32.99609375 C-40.59990234 32.10470703 -40.59990234 32.10470703 -39.38671875 31.1953125 C-38.60941406 30.60105469 -37.83210938 30.00679687 -37.03125 29.39453125 C-33.65840529 26.84039414 -30.4824222 24.49212857 -26.63671875 22.6953125 C-26.63671875 22.0353125 -26.63671875 21.3753125 -26.63671875 20.6953125 C-25.18725586 19.38598633 -25.18725586 19.38598633 -23.1640625 17.90234375 C-22.42865234 17.35384766 -21.69324219 16.80535156 -20.93554688 16.24023438 C-19.76668945 15.38268555 -19.76668945 15.38268555 -18.57421875 14.5078125 C-14.02059183 11.1638037 -9.74483038 7.91836551 -5.890625 3.76953125 C-3.77514808 1.60077159 -2.98011544 0.78586748 0 0 Z M7.36328125 106.6953125 C7.26307195 108.97479042 7.23246822 111.25738385 7.23046875 113.5390625 C7.22951202 114.22335327 7.2285553 114.90764404 7.22756958 115.6126709 C7.22688795 117.06193127 7.22874102 118.51119468 7.23291016 119.96044922 C7.23825873 122.18594178 7.23296465 124.41123251 7.2265625 126.63671875 C7.22722328 128.04166711 7.22850445 129.44661535 7.23046875 130.8515625 C7.23159668 132.13869141 7.23272461 133.42582031 7.23388672 134.75195312 C7.02641982 137.58357407 7.02641982 137.58357407 8.36328125 138.6953125 C10.64275917 138.7955218 12.9253526 138.82612553 15.20703125 138.828125 C15.89132202 138.82908173 16.57561279 138.83003845 17.28063965 138.83102417 C18.72990002 138.8317058 20.17916343 138.82985273 21.62841797 138.82568359 C23.85391053 138.82033502 26.07920126 138.8256291 28.3046875 138.83203125 C29.70963586 138.83137047 31.1145841 138.8300893 32.51953125 138.828125 C33.80666016 138.82699707 35.09378906 138.82586914 36.41992188 138.82470703 C39.25154282 139.03217393 39.25154282 139.03217393 40.36328125 137.6953125 C40.46333951 135.57351112 40.49409212 133.44837711 40.49609375 131.32421875 C40.49738281 130.02806641 40.49867188 128.73191406 40.5 127.39648438 C40.49790527 126.7177124 40.49581055 126.03894043 40.49365234 125.33959961 C40.48831255 123.26994461 40.49359318 121.2005075 40.5 119.13085938 C40.49871094 117.83341797 40.49742187 116.53597656 40.49609375 115.19921875 C40.49440186 113.40206421 40.49440186 113.40206421 40.49267578 111.56860352 C40.56089475 108.75177087 40.56089475 108.75177087 39.36328125 106.6953125 C36.02423674 105.58229766 33.49698753 105.56594612 29.98046875 105.5625 C28.10681641 105.56056641 28.10681641 105.56056641 26.1953125 105.55859375 C24.88949219 105.56246094 23.58367187 105.56632812 22.23828125 105.5703125 C20.92472656 105.56644531 19.61117187 105.56257813 18.2578125 105.55859375 C17.01128906 105.55988281 15.76476562 105.56117188 14.48046875 105.5625 C13.33175293 105.56362793 12.18303711 105.56475586 10.99951172 105.56591797 C8.43891916 105.39581085 8.43891916 105.39581085 7.36328125 106.6953125 Z M-40.63671875 106.6953125 C-40.65734375 111.7896875 -40.67796875 116.8840625 -40.69921875 122.1328125 C-40.70832275 123.74212646 -40.71742676 125.35144043 -40.72680664 127.00952148 C-40.7293042 128.26579346 -40.73180176 129.52206543 -40.734375 130.81640625 C-40.73961182 132.1098999 -40.74484863 133.40339355 -40.75024414 134.73608398 C-40.97668807 137.58183654 -40.97668807 137.58183654 -39.63671875 138.6953125 C-37.43021219 138.79543651 -35.22049489 138.8261243 -33.01171875 138.828125 C-32.34962402 138.82908173 -31.6875293 138.83003845 -31.00537109 138.83102417 C-29.60318914 138.83170576 -28.20100405 138.82985292 -26.79882812 138.82568359 C-24.64576162 138.82033496 -22.49290373 138.8256292 -20.33984375 138.83203125 C-18.98046829 138.83137046 -17.62109295 138.83008929 -16.26171875 138.828125 C-15.01648438 138.82699707 -13.77125 138.82586914 -12.48828125 138.82470703 C-9.73766444 139.02103377 -9.73766444 139.02103377 -8.63671875 137.6953125 C-8.548809 135.40379833 -8.52977837 133.10958726 -8.5390625 130.81640625 C-8.54156006 129.56013428 -8.54405762 128.3038623 -8.54663086 127.00952148 C-8.55573486 125.40020752 -8.56483887 123.79089355 -8.57421875 122.1328125 C-8.59484375 117.0384375 -8.61546875 111.9440625 -8.63671875 106.6953125 C-19.19671875 106.6953125 -29.75671875 106.6953125 -40.63671875 106.6953125 Z M-40.63671875 153.6953125 C-40.63671875 165.9053125 -40.63671875 178.1153125 -40.63671875 190.6953125 C-37.09641556 191.5803883 -34.48514747 191.82409135 -30.8828125 191.828125 C-29.23055664 191.83005859 -29.23055664 191.83005859 -27.54492188 191.83203125 C-26.39958984 191.82816406 -25.25425781 191.82429688 -24.07421875 191.8203125 C-22.92501953 191.82417969 -21.77582031 191.82804687 -20.59179688 191.83203125 C-19.49158203 191.83074219 -18.39136719 191.82945312 -17.2578125 191.828125 C-16.25161865 191.82699707 -15.2454248 191.82586914 -14.20874023 191.82470703 C-11.51752478 191.80455996 -11.51752478 191.80455996 -8.63671875 190.6953125 C-8.63671875 178.4853125 -8.63671875 166.2753125 -8.63671875 153.6953125 C-19.19671875 153.6953125 -29.75671875 153.6953125 -40.63671875 153.6953125 Z M7.36328125 153.6953125 C7.36328125 165.9053125 7.36328125 178.1153125 7.36328125 190.6953125 C12.62265625 190.7159375 17.88203125 190.7365625 23.30078125 190.7578125 C24.96230225 190.7669165 26.62382324 190.77602051 28.33569336 190.78540039 C29.6325708 190.78789795 30.92944824 190.79039551 32.265625 190.79296875 C32.95144653 190.79808472 33.63726807 190.80320068 34.34387207 190.80847168 C36.01743356 190.80878304 37.69087705 190.75754087 39.36328125 190.6953125 C41.12400709 188.93458666 40.49162909 186.6163496 40.50222778 184.2713623 C40.50020355 183.51407837 40.49817932 182.75679443 40.49609375 181.9765625 C40.49705048 181.20348755 40.4980072 180.4304126 40.49899292 179.63391113 C40.49967466 177.99633706 40.49782082 176.35876031 40.49365234 174.72119141 C40.48830396 172.20599329 40.49359751 169.69097377 40.5 167.17578125 C40.49933922 165.58854127 40.49805805 164.0013014 40.49609375 162.4140625 C40.49811798 161.65677856 40.50014221 160.89949463 40.50222778 160.1192627 C40.80781809 156.61515687 40.80781809 156.61515687 39.36328125 153.6953125 C36.98787074 153.60692602 34.64094545 153.57993727 32.265625 153.59765625 C30.96874756 153.60015381 29.67187012 153.60265137 28.33569336 153.60522461 C26.67417236 153.61432861 25.01265137 153.62343262 23.30078125 153.6328125 C18.04140625 153.6534375 12.78203125 153.6740625 7.36328125 153.6953125 Z " fill="#C0964C" transform="translate(248.63671875,65.3046875)"/>
<path d="M0 0 C3.10439811 1.60913546 5.69124003 3.7099823 8.375 5.9375 C9.12031982 6.53143555 9.86563965 7.12537109 10.63354492 7.73730469 C15.46065225 11.61914505 20.09163849 15.68990792 24.6328125 19.90234375 C28.15957408 23.02754336 31.94588404 25.76649593 35.73828125 28.55859375 C40.01303842 31.72706626 44.14112744 35.07653844 48.28515625 38.4128418 C52.55912023 41.85218347 56.86283707 45.24971183 61.1875 48.625 C66.58686457 52.84789925 71.87370254 57.1835024 77.125 61.58984375 C83.04611399 66.55360371 88.99590338 71.4818596 95.125 76.1875 C100.32675228 80.19815336 105.3604986 84.40973019 110.41943359 88.59765625 C114.97884503 92.36243596 119.58190592 96.05859294 124.25 99.6875 C129.31445662 103.62644201 134.23369423 107.70279134 139.10644531 111.87573242 C143.55840799 115.67041714 148.13970547 119.27784143 152.75854492 122.86621094 C157.42774068 126.51001723 161.95093575 130.30416762 166.45263672 134.15185547 C170.14910508 137.30355723 173.92161577 140.32041172 177.77734375 143.2734375 C180.28533569 145.22164916 182.7364457 147.23064522 185.1875 149.25 C189.41410238 152.72586322 193.68923577 156.12987264 198 159.5 C203.15893336 163.53566235 208.26646694 167.62485976 213.31640625 171.796875 C215.22730511 173.36564786 217.15353354 174.91582688 219.08984375 176.453125 C220.09144531 177.25234375 221.09304688 178.0515625 222.125 178.875 C223.03507812 179.59429687 223.94515625 180.31359375 224.8828125 181.0546875 C227 183 227 183 228 186 C220.84718723 186.21940543 213.6940052 186.41420394 206.54003906 186.59204102 C204.10726824 186.65540455 201.67463643 186.724366 199.2421875 186.79907227 C195.74240405 186.9055812 192.24261188 186.99183903 188.7421875 187.07421875 C187.11529495 187.1302552 187.11529495 187.1302552 185.45553589 187.18742371 C177.60319806 187.34320284 172.78864248 186.00854688 167 180.5 C163.27136151 177.08260011 159.42887301 173.91169031 155.4375 170.8125 C149.29882344 166.0428747 143.25299076 161.1689719 137.24194336 156.23950195 C136.60135986 155.71573975 135.96077637 155.19197754 135.30078125 154.65234375 C134.73528564 154.18820068 134.16979004 153.72405762 133.5871582 153.24584961 C132.11373886 152.08928002 130.55853877 151.03902584 129 150 C129 149.34 129 148.68 129 148 C128.41605469 147.72671875 127.83210938 147.4534375 127.23046875 147.171875 C119.19085372 142.94790913 112.2795681 135.95794764 105.29882812 130.19311523 C98.84556976 124.86435275 92.34563896 119.60287578 85.7421875 114.4609375 C79.34677298 109.47466703 73.06052138 104.40375064 66.8996582 99.13012695 C62.39224411 95.28956691 57.7608742 91.62584752 53.09204102 87.984375 C46.03895724 82.48106315 39.12500491 76.82000747 32.31811523 71.01513672 C26.68263772 66.21076347 20.96673437 61.5423013 15.11035156 57.0090332 C12.3029205 54.83173722 9.53761272 52.63015605 6.84765625 50.30859375 C5.88730469 49.48488281 4.92695313 48.66117188 3.9375 47.8125 C2.68259766 46.70841797 2.68259766 46.70841797 1.40234375 45.58203125 C-0.87938516 43.87468995 -0.87938516 43.87468995 -3.4375 43.4609375 C-7.09079675 44.22946639 -9.26702111 46.35552804 -11.9375 48.8125 C-13.09041835 49.83172748 -14.24543579 50.84858457 -15.40234375 51.86328125 C-15.99515137 52.38615723 -16.58795898 52.9090332 -17.19873047 53.44775391 C-20.05022804 55.90503522 -23.02110796 58.20026375 -26 60.5 C-31.14719417 64.4967369 -36.14901704 68.62809488 -41.09667969 72.8684082 C-45.63648967 76.73966562 -50.31660649 80.41035566 -55.02880859 84.06835938 C-59.2141203 87.33529006 -63.22061346 90.75122481 -67.1328125 94.34375 C-72.38207547 99 -72.38207547 99 -75 99 C-75 99.66 -75 100.32 -75 101 C-77.0897227 102.79539556 -79.17842082 104.47061442 -81.375 106.125 C-81.97828125 106.59292969 -82.5815625 107.06085938 -83.203125 107.54296875 C-87.73858874 111 -87.73858874 111 -90 111 C-90 111.66 -90 112.32 -90 113 C-91.6953125 114.55859375 -91.6953125 114.55859375 -94.125 116.4375 C-95.49591797 117.50871094 -95.49591797 117.50871094 -96.89453125 118.6015625 C-98.43173828 119.78878906 -98.43173828 119.78878906 -100 121 C-102.2742265 122.76650797 -104.54445914 124.53805827 -106.8125 126.3125 C-107.40401855 126.77495117 -107.99553711 127.23740234 -108.60498047 127.71386719 C-113.29322361 131.39902666 -117.85486458 135.21678911 -122.39038086 139.08740234 C-127.17648115 143.16809813 -132.06867513 147.09720861 -137 151 C-146.72115116 158.62200881 -146.72115116 158.62200881 -156.125 166.625 C-160.00225029 170.09501174 -164.13078118 173.22626889 -168.28027344 176.35961914 C-171.28439015 178.63731618 -174.12791422 180.98284383 -176.875 183.5625 C-182.80598761 188.18867034 -190.32933634 187.08413767 -197.52734375 186.87890625 C-198.51626114 186.85529526 -199.50517853 186.83168427 -200.52406311 186.80735779 C-203.66203879 186.731191 -206.79973785 186.64696618 -209.9375 186.5625 C-212.07355447 186.50923221 -214.20962218 186.45649219 -216.34570312 186.40429688 C-221.56397074 186.27564001 -226.78203525 186.14037841 -232 186 C-232 183 -232 183 -229.625 180.3125 C-227 178 -227 178 -225 178 C-225 177.34 -225 176.68 -225 176 C-223.70703125 174.87890625 -223.70703125 174.87890625 -221.8125 173.5625 C-218.0149149 170.81275472 -214.43007286 167.86512684 -210.875 164.8125 C-206.33419167 160.9265331 -201.72021919 157.16581382 -197 153.5 C-191.85030382 149.49871025 -186.84459072 145.36512319 -181.89233398 141.12280273 C-178.02829126 137.82887425 -174.074432 134.673965 -170.0625 131.5625 C-163.8920353 126.77401184 -157.95517577 121.74918511 -152.05859375 116.62890625 C-144.37078741 110 -144.37078741 110 -142 110 C-142 109.34 -142 108.68 -142 108 C-140.32118837 106.62367695 -138.57808258 105.32558818 -136.8125 104.0625 C-132.15184024 100.67178431 -127.68524713 97.12953562 -123.3125 93.375 C-119.06016608 89.72960714 -114.74724866 86.20675903 -110.30078125 82.80078125 C-106.47507054 79.80646438 -102.77081066 76.66600334 -99.046875 73.546875 C-91.8762428 67.55296193 -84.61381798 61.67722161 -77.296875 55.86328125 C-75.15120432 54.12266064 -73.07157851 52.32761162 -71 50.5 C-68 48 -68 48 -66 48 C-66 47.34 -66 46.68 -66 46 C-64.44648157 44.7469687 -62.82849077 43.57357053 -61.1875 42.4375 C-56.27002794 38.9501091 -51.59926484 35.27333359 -46.9609375 31.42578125 C-43.61891798 28.68779428 -40.22079159 26.02956966 -36.8125 23.375 C-32.37569647 19.91350776 -28.06216697 16.37497023 -23.8671875 12.62109375 C-21.01659963 10.14621098 -18.03159764 7.85734531 -15.0234375 5.578125 C-12.84508724 3.93226131 -12.84508724 3.93226131 -10.4375 1.5625 C-6.99888258 -0.64174193 -3.91851183 -0.74488387 0 0 Z " fill="#234435" transform="translate(252,5)"/>
<path d="M0 0 C6.38721099 0.01132646 12.77425387 0.00465097 19.16145897 -0.00688839 C66.07148787 -0.07838566 112.86855341 1.56953407 159.71948242 3.79589844 C160.42716546 3.82782948 161.1348485 3.85976053 161.86397648 3.89265919 C165.46899419 4.07696733 168.86550881 4.50873326 172.39135742 5.26074219 C174.06058483 5.43209116 175.73304476 5.57375364 177.40698242 5.69042969 C178.39553223 5.76205322 179.38408203 5.83367676 180.40258789 5.9074707 C181.47138184 5.98280029 182.54017578 6.05812988 183.64135742 6.13574219 C193.78565976 6.88459637 203.91999099 7.71317183 214.05090332 8.62432861 C215.5232074 8.75651879 216.99561983 8.88750801 218.46813965 9.01727295 C220.54442027 9.20059873 222.62026724 9.38822298 224.69604492 9.57714844 C226.49017822 9.73872437 226.49017822 9.73872437 228.32055664 9.90356445 C230.78842577 10.19061268 233.00248364 10.62537199 235.39135742 11.26074219 C238.72430447 11.52288409 242.05684588 11.70373646 245.39526367 11.88183594 C248.39135742 12.26074219 248.39135742 12.26074219 251.39135742 14.26074219 C251.68432617 16.42480469 251.68432617 16.42480469 251.57885742 18.88574219 C251.55178711 19.70300781 251.5247168 20.52027344 251.49682617 21.36230469 C251.44461914 22.30203125 251.44461914 22.30203125 251.39135742 23.26074219 C206.15266858 23.38961686 160.91397606 23.51712718 115.67527855 23.64292446 C110.27717135 23.65793633 104.87906418 23.67295897 99.48095703 23.68798828 C97.86964204 23.6924742 97.86964204 23.6924742 96.22577523 23.69705075 C79.06230535 23.74485946 61.89883801 23.7935306 44.73537154 23.8425476 C26.99035959 23.8932052 9.24534506 23.94287331 -8.499672 23.99170923 C-18.41037123 24.01901049 -28.32106895 24.04670824 -38.23176384 24.07554626 C-62.12334847 24.1448711 -86.01493198 24.20493553 -109.90657568 24.24983597 C-113.81107858 24.25720313 -117.71558015 24.26504942 -121.62008142 24.27323532 C-132.9034381 24.29671811 -144.18678536 24.31638888 -155.47016196 24.32723483 C-160.34193898 24.33194692 -165.21370009 24.33815452 -170.08546817 24.34875584 C-208.41450331 24.4295316 -208.41450331 24.4295316 -225.60864258 23.26074219 C-225.68961061 21.80331756 -225.74782032 20.34461412 -225.79614258 18.88574219 C-225.83094727 18.07363281 -225.86575195 17.26152344 -225.90161133 16.42480469 C-225.80493164 15.71066406 -225.70825195 14.99652344 -225.60864258 14.26074219 C-222.60014489 12.25507706 -221.46017992 11.91860491 -218.00708008 11.51464844 C-217.05849121 11.4010498 -216.10990234 11.28745117 -215.13256836 11.17041016 C-214.09342285 11.05584473 -213.05427734 10.9412793 -211.98364258 10.82324219 C-210.89422363 10.69836426 -209.80480469 10.57348633 -208.68237305 10.44482422 C-189.57169587 8.3065853 -170.34674793 6.27813393 -151.12475586 5.55126953 C-148.49982235 5.44844229 -145.97903627 5.34223455 -143.40820312 4.77661133 C-139.72837406 4.09853696 -136.06135866 3.95233233 -132.33129883 3.79589844 C-131.49304062 3.75766464 -130.65478241 3.71943085 -129.79112244 3.68003845 C-127.08460989 3.55750967 -124.37789699 3.44029234 -121.67114258 3.32324219 C-120.01162185 3.24871719 -118.35211649 3.17384908 -116.69262695 3.09863281 C-113.91589476 2.97304566 -111.13912145 2.85029834 -108.36201477 2.73324585 C-102.40960666 2.48133629 -96.45944022 2.20422554 -90.50993729 1.89192295 C-60.33303995 0.31893575 -30.21490544 -0.05404906 0 0 Z " fill="#193A2C" transform="translate(234.608642578125,307.7392578125)"/>
<path d="M0 0 C6.38721099 0.01132646 12.77425387 0.00465097 19.16145897 -0.00688839 C66.07148787 -0.07838566 112.86855341 1.56953407 159.71948242 3.79589844 C160.42716546 3.82782948 161.1348485 3.85976053 161.86397648 3.89265919 C165.46899419 4.07696733 168.86550881 4.50873326 172.39135742 5.26074219 C174.06058483 5.43209116 175.73304476 5.57375364 177.40698242 5.69042969 C178.39553223 5.76205322 179.38408203 5.83367676 180.40258789 5.9074707 C181.47138184 5.98280029 182.54017578 6.05812988 183.64135742 6.13574219 C193.78565976 6.88459637 203.91999099 7.71317183 214.05090332 8.62432861 C215.5232074 8.75651879 216.99561983 8.88750801 218.46813965 9.01727295 C220.54442027 9.20059873 222.62026724 9.38822298 224.69604492 9.57714844 C226.49017822 9.73872437 226.49017822 9.73872437 228.32055664 9.90356445 C230.78842577 10.19061268 233.00248364 10.62537199 235.39135742 11.26074219 C238.72430447 11.52288409 242.05684588 11.70373646 245.39526367 11.88183594 C248.39135742 12.26074219 248.39135742 12.26074219 251.39135742 14.26074219 C251.68432617 16.42480469 251.68432617 16.42480469 251.57885742 18.88574219 C251.55178711 19.70300781 251.5247168 20.52027344 251.49682617 21.36230469 C251.44461914 22.30203125 251.44461914 22.30203125 251.39135742 23.26074219 C206.15266858 23.38961686 160.91397606 23.51712718 115.67527855 23.64292446 C110.27717135 23.65793633 104.87906418 23.67295897 99.48095703 23.68798828 C97.86964204 23.6924742 97.86964204 23.6924742 96.22577523 23.69705075 C79.06230535 23.74485946 61.89883801 23.7935306 44.73537154 23.8425476 C26.99035959 23.8932052 9.24534506 23.94287331 -8.499672 23.99170923 C-18.41037123 24.01901049 -28.32106895 24.04670824 -38.23176384 24.07554626 C-62.12334847 24.1448711 -86.01493198 24.20493553 -109.90657568 24.24983597 C-113.81107858 24.25720313 -117.71558015 24.26504942 -121.62008142 24.27323532 C-132.9034381 24.29671811 -144.18678536 24.31638888 -155.47016196 24.32723483 C-160.34193898 24.33194692 -165.21370009 24.33815452 -170.08546817 24.34875584 C-208.41450331 24.4295316 -208.41450331 24.4295316 -225.60864258 23.26074219 C-225.68961061 21.80331756 -225.74782032 20.34461412 -225.79614258 18.88574219 C-225.83094727 18.07363281 -225.86575195 17.26152344 -225.90161133 16.42480469 C-225.80493164 15.71066406 -225.70825195 14.99652344 -225.60864258 14.26074219 C-222.60014489 12.25507706 -221.46017992 11.91860491 -218.00708008 11.51464844 C-217.05849121 11.4010498 -216.10990234 11.28745117 -215.13256836 11.17041016 C-214.09342285 11.05584473 -213.05427734 10.9412793 -211.98364258 10.82324219 C-210.89422363 10.69836426 -209.80480469 10.57348633 -208.68237305 10.44482422 C-189.57169587 8.3065853 -170.34674793 6.27813393 -151.12475586 5.55126953 C-148.49982235 5.44844229 -145.97903627 5.34223455 -143.40820312 4.77661133 C-139.72837406 4.09853696 -136.06135866 3.95233233 -132.33129883 3.79589844 C-131.49304062 3.75766464 -130.65478241 3.71943085 -129.79112244 3.68003845 C-127.08460989 3.55750967 -124.37789699 3.44029234 -121.67114258 3.32324219 C-120.01162185 3.24871719 -118.35211649 3.17384908 -116.69262695 3.09863281 C-113.91589476 2.97304566 -111.13912145 2.85029834 -108.36201477 2.73324585 C-102.40960666 2.48133629 -96.45944022 2.20422554 -90.50993729 1.89192295 C-60.33303995 0.31893575 -30.21490544 -0.05404906 0 0 Z M-72.05981445 2.70654297 C-73.78237835 2.76462537 -73.78237835 2.76462537 -75.53974152 2.82388115 C-81.29064555 3.04459744 -86.9090009 3.47211426 -92.60864258 4.26074219 C-95.20084411 4.39913995 -97.7950326 4.50390642 -100.38989258 4.57714844 C-101.08884644 4.59792953 -101.78780029 4.61871063 -102.50793457 4.64012146 C-104.70808517 4.70472754 -106.90833954 4.76408127 -109.10864258 4.82324219 C-110.613861 4.86651236 -112.11906951 4.91012912 -113.62426758 4.95410156 C-117.28562002 5.06031537 -120.94708491 5.16182415 -124.60864258 5.26074219 C-124.60864258 5.92074219 -124.60864258 6.58074219 -124.60864258 7.26074219 C-125.27395996 7.25550537 -125.93927734 7.25026855 -126.62475586 7.24487305 C-129.66104169 7.22398966 -132.69731236 7.21104599 -135.73364258 7.19824219 C-136.78036133 7.18986328 -137.82708008 7.18148438 -138.90551758 7.17285156 C-143.95728049 7.15686497 -148.62980074 7.36335414 -153.60864258 8.26074219 C-158.12492228 8.56558176 -162.64994835 8.70039291 -167.1730957 8.86621094 C-168.08381836 8.90359375 -168.99454102 8.94097656 -169.93286133 8.97949219 C-170.75874756 9.00978516 -171.58463379 9.04007812 -172.43554688 9.07128906 C-174.78879738 9.19155046 -174.78879738 9.19155046 -177.60864258 10.26074219 C-179.04340851 10.44944038 -180.48334539 10.60048007 -181.92504883 10.72558594 C-182.76656494 10.80236572 -183.60808105 10.87914551 -184.47509766 10.95825195 C-185.36479248 11.03744873 -186.2544873 11.11664551 -187.17114258 11.19824219 C-193.24838383 11.76527938 -199.13373172 12.4565734 -205.08911133 13.81933594 C-210.85052718 14.82870027 -216.77466886 14.96515419 -222.60864258 15.26074219 C-222.60864258 17.57074219 -222.60864258 19.88074219 -222.60864258 22.26074219 C-66.84864258 22.26074219 88.91135742 22.26074219 249.39135742 22.26074219 C249.39135742 19.62074219 249.39135742 16.98074219 249.39135742 14.26074219 C248.83425583 14.21285049 248.27715424 14.1649588 247.70317078 14.11561584 C241.91175312 13.61703066 236.12079481 13.11334965 230.33007812 12.60668945 C228.16808275 12.41820281 226.00597315 12.23102159 223.84375 12.04516602 C220.73821651 11.77800037 217.63312226 11.50616308 214.52807617 11.23339844 C213.55923996 11.15106461 212.59040375 11.06873077 211.59220886 10.98390198 C210.69150162 10.9038945 209.79079437 10.82388702 208.86279297 10.74145508 C208.07003464 10.67261612 207.27727631 10.60377716 206.460495 10.53285217 C204.39135742 10.26074219 204.39135742 10.26074219 201.39135742 9.26074219 C199.94407651 9.12591746 198.49220363 9.03701332 197.03979492 8.97949219 C196.18772461 8.94210937 195.3356543 8.90472656 194.45776367 8.86621094 C193.12551758 8.81400391 193.12551758 8.81400391 191.76635742 8.76074219 C186.80856775 8.56124842 181.89055741 8.3569606 176.96557617 7.73339844 C171.58815988 7.09243705 166.23722073 7.15171093 160.82885742 7.19824219 C159.31582031 7.20500977 159.31582031 7.20500977 157.7722168 7.21191406 C155.31186595 7.22357449 152.85164503 7.2399384 150.39135742 7.26074219 C150.39135742 6.60074219 150.39135742 5.94074219 150.39135742 5.26074219 C138.84135742 5.26074219 127.29135742 5.26074219 115.39135742 5.26074219 C115.39135742 4.60074219 115.39135742 3.94074219 115.39135742 3.26074219 C82.87729812 1.94394695 50.34338178 2.10665855 17.80960178 2.13217378 C11.64780252 2.13649646 5.48602386 2.13342209 -0.6757741 2.12854469 C-6.73379018 2.12394937 -12.79179762 2.12339325 -18.84981489 2.12598336 C-22.42051644 2.12750893 -25.99120435 2.12784621 -29.56190491 2.12444687 C-43.73576231 2.1128383 -57.89330294 2.21951481 -72.05981445 2.70654297 Z " fill="#C8CDCA" transform="translate(234.608642578125,307.7392578125)"/>
<path d="M0 0 C3.90001146 1.69317571 7.07308136 4.24832785 10.375 6.875 C10.98714355 7.3582373 11.59928711 7.84147461 12.22998047 8.33935547 C17.21992711 12.30912391 22.05231507 16.44549403 26.85742188 20.63574219 C31.66567773 24.79725761 36.69070049 28.568045 41.8671875 32.2578125 C42.57101562 32.83273438 43.27484375 33.40765625 44 34 C44 34.66 44 35.32 44 36 C44.680625 36.165 45.36125 36.33 46.0625 36.5 C50.48514019 38.75836946 53.37630699 41.78735158 56 46 C56.94570047 49.78354136 56.88976781 53.397568 56.79467773 57.28125 C56.79569992 58.38457169 56.79672211 59.48789337 56.79777527 60.62464905 C56.79292059 64.25076592 56.73857358 67.87432617 56.68359375 71.5 C56.67053017 74.02204005 56.6605696 76.54409792 56.65357971 79.06616211 C56.62963637 85.01264628 56.57453967 90.95831799 56.50413328 96.90438557 C56.42568023 103.67819475 56.38735119 110.45204914 56.35226524 117.2262001 C56.27924934 131.15130196 56.15625791 145.07560107 56 159 C52.80089926 160.71473808 51.15030757 161.18105885 47.53125 160.65625 C41.52432094 159.90758582 35.54695136 159.69790023 29.5 159.5 C27.36448212 159.43011032 25.22905985 159.35723035 23.09375 159.28125 C22.16240234 159.25095703 21.23105469 159.22066406 20.27148438 159.18945312 C17.77521889 159.04489327 15.33987516 158.82405252 12.8581543 158.54785156 C-21.82854526 154.99845125 -57.08929232 155.67850336 -91.90258789 155.73925781 C-98.48303508 155.75063336 -105.06332001 155.74388157 -111.64376163 155.73236942 C-157.72597028 155.66425295 -204.1235284 156.11788632 -250 161 C-252.11367486 157.82948772 -252.25349227 157.04941391 -252.27415466 153.42092896 C-252.28412979 152.48164551 -252.29410492 151.54236206 -252.30438232 150.57461548 C-252.305047 149.54597382 -252.30571167 148.51733215 -252.30639648 147.45751953 C-252.31888176 145.83030975 -252.31888176 145.83030975 -252.33161926 144.17022705 C-252.35576861 140.57438599 -252.36449732 136.97872613 -252.37109375 133.3828125 C-252.38005602 130.88801009 -252.38917778 128.39320825 -252.39845276 125.89840698 C-252.41495852 120.66452284 -252.42267897 115.4306831 -252.42553711 110.19677734 C-252.42877042 104.81899455 -252.44990905 99.44161852 -252.48706055 94.06396484 C-252.53121097 87.57654943 -252.55099995 81.08951748 -252.55226326 74.60195541 C-252.55647499 72.12757488 -252.56894717 69.65319427 -252.58978081 67.17889786 C-252.61659274 63.71923689 -252.61189903 60.26098084 -252.59936523 56.80126953 C-252.62161667 55.26437973 -252.62161667 55.26437973 -252.64431763 53.69644165 C-252.57242353 46.7385463 -252.57242353 46.7385463 -249.58753967 42.88742065 C-247 41 -247 41 -245 40 C-245.3125 41.875 -245.3125 41.875 -246 44 C-246.99 44.66 -247.98 45.32 -249 46 C-249.46167644 48.06526019 -249.46167644 48.06526019 -249.39872742 50.49246216 C-249.41126556 51.43759674 -249.42380371 52.38273132 -249.4367218 53.35650635 C-249.43528671 54.39659851 -249.43385162 55.43669067 -249.43237305 56.50830078 C-249.4425647 57.60099274 -249.45275635 58.69368469 -249.46325684 59.81948853 C-249.493542 63.44481429 -249.50267659 67.06987653 -249.51171875 70.6953125 C-249.5285539 73.20353077 -249.54670254 75.71174055 -249.56611633 78.21994019 C-249.60887558 84.15556535 -249.63834926 90.09116308 -249.66143972 96.02688873 C-249.69111194 103.44640293 -249.74131633 110.86575384 -249.79101562 118.28515625 C-249.87719929 131.52337305 -249.94504808 144.76161863 -250 158 C-244.86665073 157.75754095 -239.73364333 157.50892481 -234.60083008 157.25537109 C-232.8665308 157.17047644 -231.13215798 157.08706694 -229.39770508 157.00537109 C-226.85735405 156.88542447 -224.31730639 156.76071662 -221.77734375 156.6328125 C-220.45410331 156.56624561 -220.45410331 156.56624561 -219.10413074 156.49833393 C-214.7194261 156.26091142 -210.35874016 155.95787604 -205.99211121 155.49150085 C-187.39011471 153.52045261 -168.80230085 153.72294885 -150.11973977 153.76428056 C-145.23007115 153.77319068 -140.34040446 153.77130122 -135.45072937 153.7709198 C-127.25855894 153.77185 -119.06642603 153.78045078 -110.87426758 153.79418945 C-101.43267007 153.80996596 -91.99111336 153.81518517 -82.54950362 153.8144539 C-72.43512065 153.81377664 -62.32075316 153.82072037 -52.20637488 153.8299005 C-49.31446062 153.83202122 -46.42254889 153.83274019 -43.53063393 153.83313942 C-38.97907478 153.83415005 -34.42754934 153.8403049 -29.87600136 153.85030556 C-28.21525275 153.85320388 -26.55450027 153.8544614 -24.89374924 153.85387802 C-16.74009223 153.85209885 -8.65875049 153.9579157 -0.53521919 154.76630592 C3.84259542 155.16984868 8.22747525 155.23342004 12.62109375 155.31640625 C13.56888199 155.33718735 14.51667023 155.35796844 15.49317932 155.37937927 C18.47455824 155.44386521 21.45601367 155.50321389 24.4375 155.5625 C26.46029347 155.60579346 28.48308003 155.64941077 30.50585938 155.69335938 C34.19844904 155.77215911 37.89104426 155.85040698 41.58374023 155.92407227 C42.68527687 155.9461953 42.68527687 155.9461953 43.80906677 155.96876526 C46.20630467 156.00294115 48.60255076 156.00511562 51 156 C50.99861731 155.16013015 50.99861731 155.16013015 50.99720669 154.30329323 C50.975141 140.69157201 50.95864712 127.07985392 50.94818783 113.46811867 C50.94296038 106.88564006 50.93586521 100.30317432 50.92456055 93.72070312 C50.9137268 87.37299853 50.90772212 81.02530635 50.90512276 74.67759323 C50.90326939 72.25099873 50.89965047 69.82440494 50.89426994 67.3978157 C50.88705308 64.0094987 50.88600934 60.62123355 50.88647461 57.23291016 C50.88287933 56.22087021 50.87928406 55.20883026 50.87557983 54.16612244 C50.8769545 53.24623032 50.87832916 52.3263382 50.87974548 51.37857056 C50.87836279 50.17563071 50.87836279 50.17563071 50.87695217 48.94838905 C51 47 51 47 52 45 C51.34 45 50.68 45 50 45 C48.31237149 43.3545622 46.6459651 41.68711423 45 40 C44.34 39.67 43.68 39.34 43 39 C43 38.34 43 37.68 43 37 C42.34 37 41.68 37 41 37 C40.67 36.01 40.34 35.02 40 34 C39.01 33.67 38.02 33.34 37 33 C36.443125 32.236875 35.88625 31.47375 35.3125 30.6875 C32.34540504 27.2392545 29.1160551 25.78828607 25 24 C25 23.34 25 22.68 25 22 C24.21625 21.7525 23.4325 21.505 22.625 21.25 C19.67682892 19.84610901 19.0975223 18.99324263 18 16 C17.34 16 16.68 16 16 16 C16 15.01 16 14.02 16 13 C15.278125 12.731875 14.55625 12.46375 13.8125 12.1875 C10.99052179 10.99599809 8.51659576 9.74763594 6 8 C5.67 7.01 5.34 6.02 5 5 C4.01 4.67 3.02 4.34 2 4 C2 3.34 2 2.68 2 2 C1.34 2 0.68 2 0 2 C0 1.34 0 0.68 0 0 Z " fill="#CCAA6F" transform="translate(346,145)"/>
<path d="M0 0 C0.33 0.99 0.66 1.98 1 3 C0.350704 3.39986272 -0.298592 3.79972544 -0.96756363 4.21170521 C-3.16738072 5.80105844 -3.16738072 5.80105844 -3.50780869 8.11828899 C-3.51149586 8.94145013 -3.51518303 9.76461126 -3.51898193 10.61271667 C-3.53289474 11.55922592 -3.54680756 12.50573517 -3.56114197 13.48092651 C-3.5561116 14.5174234 -3.55108124 15.55392029 -3.54589844 16.62182617 C-3.55623611 17.71466415 -3.56657379 18.80750214 -3.57722473 19.93345642 C-3.60677324 23.55344213 -3.6081545 27.17287165 -3.609375 30.79296875 C-3.62434844 33.29975967 -3.64107381 35.80654069 -3.65948486 38.31330872 C-3.69878695 44.24184224 -3.72039056 50.17027372 -3.73345876 56.09890777 C-3.75087753 63.51070935 -3.79570554 70.92230207 -3.83984375 78.33398438 C-3.91526043 91.55594072 -3.96624431 104.77787505 -4 118 C1.13334927 117.75754095 6.26635667 117.50892481 11.39916992 117.25537109 C13.1334692 117.17047644 14.86784202 117.08706694 16.60229492 117.00537109 C19.14264602 116.88542447 21.68269413 116.76072848 24.22265625 116.6328125 C25.54559079 116.56620737 25.54559079 116.56620737 26.89525127 116.49825668 C31.28325713 116.26051593 35.64763146 115.95731768 40.01777649 115.49273682 C58.52997976 113.53857664 77.02447058 113.70547992 95.6168077 113.73134899 C100.48138242 113.73648935 105.34595041 113.73169585 110.21052551 113.72857666 C118.36912412 113.72496107 126.52768625 113.72967337 134.6862793 113.73925781 C144.06411761 113.75014866 153.44186896 113.74660239 162.81970519 113.735605 C170.93507153 113.72647606 179.05041197 113.72527372 187.1657818 113.73048234 C191.9850442 113.73357004 196.80426597 113.73410083 201.62352562 113.72740936 C251.92903812 113.66731316 251.92903812 113.66731316 260 118 C258.71522766 117.94072327 257.43045532 117.88144653 256.10675049 117.82037354 C221.91823849 116.2713341 187.79120005 115.67869525 153.56933594 115.73925781 C147.04401666 115.75067498 140.51886028 115.74384877 133.99354649 115.73236942 C88.03252344 115.6640688 41.75537998 116.13077274 -4 121 C-6.11367486 117.82948772 -6.25349227 117.04941391 -6.27415466 113.42092896 C-6.28412979 112.48164551 -6.29410492 111.54236206 -6.30438232 110.57461548 C-6.305047 109.54597382 -6.30571167 108.51733215 -6.30639648 107.45751953 C-6.31888176 105.83030975 -6.31888176 105.83030975 -6.33161926 104.17022705 C-6.35576861 100.57438599 -6.36449732 96.97872613 -6.37109375 93.3828125 C-6.38005602 90.88801009 -6.38917778 88.39320825 -6.39845276 85.89840698 C-6.41495852 80.66452284 -6.42267897 75.4306831 -6.42553711 70.19677734 C-6.42877042 64.81899455 -6.44990905 59.44161852 -6.48706055 54.06396484 C-6.53121097 47.57654943 -6.55099995 41.08951748 -6.55226326 34.60195541 C-6.55647499 32.12757488 -6.56894717 29.65319427 -6.58978081 27.17889786 C-6.61659274 23.71923689 -6.61189903 20.26098084 -6.59936523 16.80126953 C-6.61419952 15.77667633 -6.62903381 14.75208313 -6.64431763 13.69644165 C-6.57222828 6.71965029 -6.57222828 6.71965029 -3.52503967 2.88742065 C-2.69177658 2.26457184 -1.85851349 1.64172302 -1 1 C-0.67 0.67 -0.34 0.34 0 0 Z " fill="#E3D8C4" transform="translate(100,185)"/>
<path d="M0 0 C3.62385938 0.00260731 7.24771678 0.00016322 10.87157631 -0.00138617 C16.95585024 -0.00318611 23.04011188 -0.00086162 29.12438393 0.00395441 C35.28324618 0.00877481 41.44208419 0.00878461 47.60094643 0.00395441 C113.72183698 -0.04672648 113.72183698 -0.04672648 142.88414955 1.1343255 C142.88414955 1.7943255 142.88414955 2.4543255 142.88414955 3.1343255 C141.88838968 3.13340371 140.89262981 3.13248192 139.8666954 3.13153219 C115.6203801 3.10931739 91.37406611 3.09289249 67.12774277 3.08251333 C55.40233562 3.07736045 43.6769352 3.07033693 31.95153236 3.05888605 C21.72984178 3.04890845 11.50815607 3.04246475 1.28646076 3.04023701 C-4.12414728 3.03893513 -9.53474137 3.03588237 -14.94534492 3.02859545 C-20.04239917 3.0217867 -25.13943379 3.01971841 -30.23649216 3.02121782 C-32.10285931 3.02094367 -33.96922715 3.01896744 -35.83559036 3.01512003 C-48.00278588 2.9342732 -48.00278588 2.9342732 -60.12073517 3.89553404 C-64.14084099 4.37669268 -68.19721603 4.42781569 -72.24085045 4.5718255 C-104.9176621 4.65132567 -104.9176621 4.65132567 -136.86780357 9.64360285 C-140.01175598 10.32989133 -143.07234882 10.35848734 -146.28772545 10.45073175 C-146.97014305 10.47151285 -147.65256065 10.49229395 -148.35565758 10.51370478 C-150.52562401 10.57884603 -152.69570669 10.63791954 -154.86585045 10.6968255 C-156.34112266 10.74004447 -157.81638332 10.78365983 -159.2916317 10.82768488 C-162.89958211 10.93449069 -166.50766178 11.03585703 -170.11585045 11.1343255 C-170.11585045 10.8043255 -170.11585045 10.4743255 -170.11585045 10.1343255 C-169.52570152 10.07897638 -168.9355526 10.02362726 -168.32752037 9.96660089 C-165.65243837 9.71364864 -162.97790442 9.45529851 -160.30335045 9.1968255 C-158.91019615 9.06630793 -158.91019615 9.06630793 -157.48889732 8.93315363 C-156.14988365 8.80263605 -156.14988365 8.80263605 -154.7838192 8.66948175 C-153.96163902 8.59092951 -153.13945885 8.51237726 -152.29236412 8.43144464 C-149.94097623 8.17881505 -149.94097623 8.17881505 -147.11585045 7.1343255 C-145.56033988 6.9987142 -144.00043067 6.91030855 -142.4400692 6.8530755 C-141.52934654 6.81569269 -140.61862389 6.77830988 -139.68030357 6.73979425 C-138.73090904 6.70498957 -137.78151451 6.67018488 -136.80335045 6.6343255 C-129.96500087 6.44203819 -129.96500087 6.44203819 -123.1900692 5.60698175 C-118.22640983 4.84382701 -113.25375632 5.03169756 -108.24085045 5.0718255 C-106.63596764 5.07859308 -106.63596764 5.07859308 -104.99866295 5.08549738 C-102.37100059 5.09722801 -99.74345506 5.11364322 -97.11585045 5.1343255 C-97.11585045 4.4743255 -97.11585045 3.8143255 -97.11585045 3.1343255 C-95.72462975 3.09674128 -95.72462975 3.09674128 -94.30530357 3.05839777 C-90.83124506 2.96269189 -87.35732125 2.8634964 -83.88342857 2.76201105 C-82.38607171 2.71896688 -80.88867532 2.6772735 -79.39124107 2.63701105 C-77.22640688 2.57856053 -75.06176611 2.51509098 -72.89710045 2.45073175 C-71.59836998 2.41407404 -70.29963951 2.37741632 -68.96155357 2.33964777 C-65.17098679 2.19129649 -65.17098679 2.19129649 -61.65979576 1.65613031 C-55.98109193 0.93108729 -50.28440696 0.77290835 -44.56702232 0.58012629 C-43.34212845 0.53801586 -42.11723457 0.49590544 -40.8552227 0.45251894 C-27.23777761 0.02210151 -13.62300913 -0.01296923 0 0 Z " fill="#68786D" transform="translate(207.1158504486084,309.865674495697)"/>
<path d="M0 0 C7.31403869 -0.02536342 14.62806603 -0.04287256 21.94213867 -0.05493164 C24.43009871 -0.05995913 26.9180558 -0.06678202 29.40600586 -0.07543945 C32.98291757 -0.08757426 36.5597902 -0.09324419 40.13671875 -0.09765625 C41.80416389 -0.10539818 41.80416389 -0.10539818 43.5052948 -0.11329651 C45.06634697 -0.11340981 45.06634697 -0.11340981 46.65893555 -0.11352539 C47.5716069 -0.115746 48.48427826 -0.11796661 49.42460632 -0.12025452 C52.04554758 0.00212678 54.44087864 0.43863033 57 1 C58.66922741 1.17134898 60.34168733 1.31301145 62.015625 1.4296875 C63.0041748 1.50131104 63.99272461 1.57293457 65.01123047 1.64672852 C66.08002441 1.72205811 67.14881836 1.7973877 68.25 1.875 C78.39430233 2.62385418 88.52863357 3.45242965 98.6595459 4.36358643 C100.13184998 4.4957766 101.60426241 4.62676582 103.07678223 4.75653076 C105.15306285 4.93985654 107.22890982 5.12748079 109.3046875 5.31640625 C110.50077637 5.42412354 111.69686523 5.53184082 112.92919922 5.64282227 C115.39706835 5.92987049 117.61112621 6.36462981 120 7 C123.33294705 7.2621419 126.66548845 7.44299428 130.00390625 7.62109375 C133 8 133 8 136 10 C136 12.97 136 15.94 136 19 C102.67 19 69.34 19 35 19 C35 18.67 35 18.34 35 18 C67.67 18 100.34 18 134 18 C134 15.36 134 12.72 134 10 C133.38294189 9.98018066 132.76588379 9.96036133 132.13012695 9.93994141 C120.79111149 9.56061199 109.48438477 9.07703562 98.1875 8 C97.30553955 7.9170166 96.4235791 7.8340332 95.51489258 7.74853516 C92.13915207 7.40912737 89.23428537 7.07809512 86 6 C84.55271909 5.86517527 83.10084621 5.77627114 81.6484375 5.71875 C80.79636719 5.68136719 79.94429688 5.64398438 79.06640625 5.60546875 C78.17824219 5.57066406 77.29007812 5.53585937 76.375 5.5 C71.42142294 5.30067574 66.49854965 5.09646059 61.57421875 4.50390625 C56.20809711 3.86429113 50.83465477 3.65538646 45.4375 3.4375 C44.42880859 3.39431641 43.42011719 3.35113281 42.38085938 3.30664062 C39.92067425 3.20170382 37.46040825 3.09954299 35 3 C35 2.34 35 1.68 35 1 C23.45 1 11.9 1 0 1 C0 0.67 0 0.34 0 0 Z " fill="#D5D9D6" transform="translate(350,312)"/>
<path d="M0 0 C1.05785706 0.01077827 1.05785706 0.01077827 2.13708496 0.02177429 C2.8619812 0.02223251 3.58687744 0.02269073 4.33374023 0.02316284 C5.86700069 0.02618505 7.40025808 0.03407046 8.93347168 0.0464325 C11.28400518 0.06467065 13.63414439 0.0669423 15.98474121 0.06669617 C17.47302588 0.07161213 18.96130786 0.07744079 20.44958496 0.08427429 C21.154823 0.08538712 21.86006104 0.08649994 22.58666992 0.08764648 C27.56118424 0.13616768 27.56118424 0.13616768 29.79333496 1.25224304 C29.79333496 15.11224304 29.79333496 28.97224304 29.79333496 43.25224304 C17.91333496 43.25224304 6.03333496 43.25224304 -6.20666504 43.25224304 C-7.86342877 39.93871559 -7.36978748 36.23883942 -7.37463379 32.59599304 C-7.37796219 31.73792053 -7.38129059 30.87984802 -7.38471985 29.99577332 C-7.38978642 28.18006426 -7.39212826 26.36434588 -7.39196777 24.54862976 C-7.39415621 21.76348134 -7.41231993 18.97872768 -7.43127441 16.19364929 C-7.43420794 14.4319319 -7.43619301 12.67021262 -7.43713379 10.90849304 C-7.44431931 10.07201233 -7.45150482 9.23553162 -7.45890808 8.373703 C-7.43277481 1.79752725 -6.77880704 0.0318859 0 0 Z M-5.20666504 3.25224304 C-5.20666504 15.46224304 -5.20666504 27.67224304 -5.20666504 40.25224304 C0.05270996 40.27286804 5.31208496 40.29349304 10.73083496 40.31474304 C12.39235596 40.32384705 14.05387695 40.33295105 15.76574707 40.34233093 C17.06262451 40.34482849 18.35950195 40.34732605 19.69567871 40.34989929 C20.38150024 40.35501526 21.06732178 40.36013123 21.77392578 40.36540222 C23.44748727 40.36571358 25.12093076 40.31447141 26.79333496 40.25224304 C28.5540608 38.49151721 27.9216828 36.17328014 27.93228149 33.82829285 C27.93025726 33.07100891 27.92823303 32.31372498 27.92614746 31.53349304 C27.92710419 30.76041809 27.92806091 29.98734314 27.92904663 29.19084167 C27.92972837 27.55326761 27.92787453 25.91569085 27.92370605 24.27812195 C27.91835767 21.76292384 27.92365122 19.24790431 27.93005371 16.73271179 C27.92939293 15.14547181 27.92811176 13.55823194 27.92614746 11.97099304 C27.92817169 11.21370911 27.93019592 10.45642517 27.93228149 9.67619324 C28.2378718 6.17208741 28.2378718 6.17208741 26.79333496 3.25224304 C24.41792445 3.16385656 22.07099916 3.13686781 19.69567871 3.15458679 C18.39880127 3.15708435 17.10192383 3.15958191 15.76574707 3.16215515 C14.10422607 3.17125916 12.44270508 3.18036316 10.73083496 3.18974304 C5.47145996 3.21036804 0.21208496 3.23099304 -5.20666504 3.25224304 Z " fill="#E0CFB1" transform="translate(261.2066650390625,215.7477569580078)"/>
<path d="M0 0 C5.56665328 1.3494917 9.06319975 5.284621 12 10 C12.94570047 13.78354136 12.88976781 17.397568 12.79467773 21.28125 C12.79569992 22.38457169 12.79672211 23.48789337 12.79777527 24.62464905 C12.79292059 28.25076592 12.73857358 31.87432617 12.68359375 35.5 C12.67053017 38.02204005 12.6605696 40.54409792 12.65357971 43.06616211 C12.62963637 49.01264628 12.57453967 54.95831799 12.50413328 60.90438557 C12.42568023 67.67819475 12.38735119 74.45204914 12.35226524 81.2262001 C12.27924934 95.15130196 12.15625791 109.07560107 12 123 C8.81451635 124.70594956 7.17298406 125.18378711 3.5703125 124.66015625 C-2.65407512 123.88410792 -8.85958379 123.65970371 -15.125 123.4375 C-16.27226562 123.39431641 -17.41953125 123.35113281 -18.6015625 123.30664062 C-21.40095143 123.20166354 -24.20041215 123.09950535 -27 123 C-27 122.67 -27 122.34 -27 122 C-14.79 122 -2.58 122 10 122 C10.07268564 107.40444477 10.10789232 92.81009237 10.07515812 78.21438599 C10.06115136 71.43673797 10.06381022 64.65987353 10.10620117 57.88232422 C10.14707502 51.33975139 10.14084621 44.79819863 10.10607719 38.25558472 C10.10048455 35.76136835 10.11059428 33.26706506 10.13676643 30.77297974 C10.1707811 27.27421124 10.14862173 23.77991466 10.11352539 20.28125 C10.13653214 19.25337875 10.15953888 18.22550751 10.1832428 17.16648865 C10.08657952 12.69377463 9.88671042 10.04109493 6.92208672 6.56030273 C4.68642258 4.58376575 2.38302084 2.79201763 0 1 C0 0.67 0 0.34 0 0 Z " fill="#EADFC5" transform="translate(390,181)"/>
<path d="M0 0 C0 0.33 0 0.66 0 1 C-5.31207248 1.74668723 -10.4042139 2.11933785 -15.78125 2.09765625 C-16.48020386 2.0962413 -17.17915771 2.09482635 -17.89929199 2.09336853 C-20.09957429 2.0878367 -22.29974923 2.07529777 -24.5 2.0625 C-26.00520685 2.05747616 -27.51041532 2.05291482 -29.015625 2.04882812 C-32.67711735 2.03788977 -36.33854817 2.02067359 -40 2 C-40 2.66 -40 3.32 -40 4 C-40.66531738 4.02505615 -41.33063477 4.0501123 -42.01611328 4.07592773 C-45.05257487 4.19251136 -48.08877346 4.31495351 -51.125 4.4375 C-52.17171875 4.47681641 -53.2184375 4.51613281 -54.296875 4.55664062 C-59.29678737 4.76233322 -64.06475889 5.16318342 -69 6 C-73.51664774 6.30114088 -78.04118113 6.43964615 -82.56445312 6.60546875 C-83.47517578 6.64285156 -84.38589844 6.68023437 -85.32421875 6.71875 C-86.15010498 6.74904297 -86.97599121 6.77933594 -87.8269043 6.81054688 C-90.18015481 6.93080828 -90.18015481 6.93080828 -93 8 C-94.55837215 8.12467679 -96.1208921 8.2010202 -97.68359375 8.24609375 C-98.60543457 8.27767578 -99.52727539 8.30925781 -100.47705078 8.34179688 C-101.45399902 8.37337891 -102.43094727 8.40496094 -103.4375 8.4375 C-110.51286477 8.70721185 -117.34218268 9.16341469 -124.3046875 10.5234375 C-129.16302581 11.38244804 -134.08176425 11.66862951 -139 12 C-139 14.64 -139 17.28 -139 20 C-139.66 20 -140.32 20 -141 20 C-141.08096803 18.54257537 -141.13917774 17.08387193 -141.1875 15.625 C-141.22230469 14.81289063 -141.25710937 14.00078125 -141.29296875 13.1640625 C-141.19628906 12.44992187 -141.09960938 11.73578125 -141 11 C-137.99150231 8.99433487 -136.85153734 8.65786272 -133.3984375 8.25390625 C-132.44984863 8.14030762 -131.50125977 8.02670898 -130.52392578 7.90966797 C-128.96520752 7.73781982 -128.96520752 7.73781982 -127.375 7.5625 C-126.28558105 7.43762207 -125.19616211 7.31274414 -124.07373047 7.18408203 C-104.96305329 5.04584311 -85.73810535 3.01739174 -66.51611328 2.29052734 C-63.81557512 2.18473842 -61.22929783 2.0473781 -58.57843018 1.49964905 C-56.08313473 1.01610988 -53.79824432 0.84418645 -51.26074219 0.79467773 C-49.89341949 0.7647599 -49.89341949 0.7647599 -48.49847412 0.73423767 C-47.52444641 0.71752518 -46.5504187 0.70081268 -45.546875 0.68359375 C-44.02468353 0.6524221 -44.02468353 0.6524221 -42.47174072 0.62062073 C-39.23122743 0.55539794 -35.99063232 0.49647749 -32.75 0.4375 C-30.58462759 0.39427027 -28.41926286 0.3506546 -26.25390625 0.30664062 C-17.50129731 0.13346663 -8.75461125 -0.0263423 0 0 Z " fill="#DFE1DE" transform="translate(150,311)"/>
<path d="M0 0 C1.72284517 -0.00299762 3.44568968 -0.00640152 5.16853333 -0.01017761 C9.8219726 -0.01896366 14.47539344 -0.02135353 19.12884021 -0.0219934 C22.04657412 -0.02270733 24.96430344 -0.0248482 27.88203621 -0.02749062 C38.09128234 -0.03672845 48.30051546 -0.04082774 58.50976562 -0.04003906 C67.97596157 -0.03943972 77.44210026 -0.04996728 86.90828174 -0.06578273 C95.07435636 -0.07893217 103.24041244 -0.08421983 111.40649754 -0.08358365 C116.26618629 -0.0833307 121.12582418 -0.08606825 125.98550224 -0.0967617 C130.56649174 -0.10656743 135.14738307 -0.10643814 139.72837639 -0.09924507 C141.39220832 -0.09821429 143.05604677 -0.10047013 144.71986771 -0.10660553 C153.73883781 -0.13765896 162.64843428 0.18464748 171.6309967 1.03544617 C172.48025929 1.11297743 173.32952187 1.19050869 174.20451969 1.27038938 C174.99874665 1.35308802 175.7929736 1.43578666 176.61126804 1.52099133 C177.31087227 1.59276063 178.0104765 1.66452994 178.73128086 1.73847407 C180.97960221 2.19634812 182.72674561 3.04125882 184.72875977 4.14526367 C182.97490715 4.05536667 182.97490715 4.05536667 181.18562317 3.96365356 C151.30063091 2.4750766 121.46994174 1.94553988 91.55297852 1.94995117 C90.68002844 1.95007989 89.80707837 1.95020861 88.90767527 1.95034122 C78.1551544 1.95361864 67.40269499 1.97423646 56.6502105 2.00121045 C47.36027852 2.02408702 38.07034258 2.03469115 28.78038919 2.04461646 C9.76314738 2.0651914 -9.2540417 2.10006845 -28.27124023 2.14526367 C-28.27124023 1.81526367 -28.27124023 1.48526367 -28.27124023 1.14526367 C-18.84989398 0.02645293 -9.46963916 -0.00330895 0 0 Z " fill="#D3C09D" transform="translate(175.271240234375,298.854736328125)"/>
<path d="M0 0 C2.0625 0.4375 2.0625 0.4375 4 1 C3.6757435 1.56942951 3.35148701 2.13885902 3.01740456 2.72554398 C1.92533156 5.16692482 1.74096171 6.73523299 1.7215271 9.39129639 C1.71036362 10.26345291 1.69920013 11.13560944 1.68769836 12.03419495 C1.68553818 12.98293991 1.68337799 13.93168488 1.68115234 14.90917969 C1.67110672 15.91438156 1.6610611 16.91958344 1.65071106 17.95524597 C1.61982282 21.27744984 1.60282808 24.59957291 1.5859375 27.921875 C1.56723041 30.22545062 1.54765735 32.52901936 1.5272522 34.83258057 C1.47587661 40.8955276 1.43627983 46.95849687 1.39910889 53.02154541 C1.35910333 59.20843021 1.30799525 65.39522211 1.2578125 71.58203125 C1.1609889 83.72128895 1.07660463 95.86059905 1 108 C1.66 108 2.32 108 3 108 C3.33 108.99 3.66 109.98 4 111 C8.62 111 13.24 111 18 111 C18 111.33 18 111.66 18 112 C13.64667264 112.84023188 9.55557481 113.10770995 5.125 113.0625 C3.39636719 113.04896484 3.39636719 113.04896484 1.6328125 113.03515625 C0.76398438 113.02355469 -0.10484375 113.01195312 -1 113 C-1.02333003 98.41428805 -1.04091327 83.82857897 -1.05181217 69.24285221 C-1.05697491 62.47089579 -1.06401718 55.69895095 -1.07543945 48.92700195 C-1.08644714 42.39775574 -1.09227625 35.86851706 -1.09487724 29.33926201 C-1.09673199 26.84206388 -1.10035354 24.34486645 -1.10573006 21.84767342 C-1.11293684 18.36335931 -1.1139911 14.87909569 -1.11352539 11.39477539 C-1.11712067 10.35108795 -1.12071594 9.30740051 -1.12442017 8.23208618 C-1.1230455 7.28832626 -1.12167084 6.34456635 -1.12025452 5.37220764 C-1.12117631 4.54720292 -1.1220981 3.7221982 -1.12304783 2.87219334 C-1 1 -1 1 0 0 Z " fill="#B49259" transform="translate(97,190)"/>
<path d="M0 0 C0.7322731 0.00202423 1.4645462 0.00404846 2.2190094 0.00613403 C2.96751663 0.00517731 3.71602386 0.00422058 4.48721313 0.00323486 C6.07351261 0.00255307 7.65981486 0.00440731 9.24610901 0.00857544 C11.67789474 0.01391629 14.10949513 0.00863434 16.54127502 0.00222778 C18.07968689 0.00288871 19.61809864 0.00417018 21.1565094 0.00613403 C21.88675827 0.0041098 22.61700714 0.00208557 23.36938477 0 C28.52425229 0.02398985 28.52425229 0.02398985 30.75416565 1.13894653 C30.75416565 12.68894653 30.75416565 24.23894653 30.75416565 36.13894653 C25.64546754 36.16185549 20.53694639 36.18178255 15.42823792 36.19387817 C13.68897397 36.19891858 11.94971429 36.20575084 10.21046448 36.21438599 C7.71590628 36.22646445 5.22140392 36.23217762 2.7268219 36.23660278 C1.94452713 36.24176407 1.16223236 36.24692535 0.35623169 36.25224304 C-1.51150549 36.25243879 -3.37912639 36.20094348 -5.24583435 36.13894653 C-6.97876415 34.40601674 -6.37403481 32.17680317 -6.38478088 29.86746216 C-6.38275665 29.132052 -6.38073242 28.39664185 -6.37864685 27.63894653 C-6.37960358 26.88806763 -6.3805603 26.13718872 -6.38154602 25.36355591 C-6.38222773 23.77306027 -6.38037407 22.18256186 -6.37620544 20.59207153 C-6.37085702 18.14929999 -6.37615069 15.70671232 -6.3825531 13.26394653 C-6.38189232 11.72227946 -6.38061115 10.1806125 -6.37864685 8.63894653 C-6.38067108 7.90353638 -6.38269531 7.16812622 -6.38478088 6.41043091 C-6.35635166 0.30096449 -6.11213835 0.02857782 0 0 Z M-4.24583435 3.13894653 C-4.34604365 5.41842445 -4.37664738 7.70101788 -4.37864685 9.98269653 C-4.37960358 10.6669873 -4.3805603 11.35127808 -4.38154602 12.05630493 C-4.38222765 13.5055653 -4.38037458 14.95482872 -4.37620544 16.40408325 C-4.37085687 18.62957581 -4.37615095 20.85486654 -4.3825531 23.08035278 C-4.38189232 24.48530115 -4.38061115 25.89024939 -4.37864685 27.29519653 C-4.37751892 28.58232544 -4.37639099 29.86945435 -4.37522888 31.19558716 C-4.58269578 34.0272081 -4.58269578 34.0272081 -3.24583435 35.13894653 C-0.96635644 35.23915583 1.316237 35.26975957 3.59791565 35.27175903 C4.28220642 35.27271576 4.96649719 35.27367249 5.67152405 35.2746582 C7.12078442 35.27533983 8.57004783 35.27348676 10.01930237 35.26931763 C12.24479493 35.26396905 14.47008566 35.26926313 16.6955719 35.27566528 C18.10052026 35.2750045 19.5054685 35.27372333 20.91041565 35.27175903 C22.19754456 35.2706311 23.48467346 35.26950317 24.81080627 35.26834106 C27.64242722 35.47580796 27.64242722 35.47580796 28.75416565 34.13894653 C28.8542239 32.01714515 28.88497652 29.89201114 28.88697815 27.76785278 C28.88826721 26.47170044 28.88955627 25.1755481 28.8908844 23.84011841 C28.88878967 23.16134644 28.88669495 22.48257446 28.88453674 21.78323364 C28.87919695 19.71357864 28.88447758 17.64414154 28.8908844 15.57449341 C28.88959534 14.277052 28.88830627 12.9796106 28.88697815 11.64285278 C28.88528625 9.84569824 28.88528625 9.84569824 28.88356018 8.01223755 C28.95177914 5.1954049 28.95177914 5.1954049 27.75416565 3.13894653 C24.41512114 2.0259317 21.88787193 2.00958015 18.37135315 2.00613403 C16.49770081 2.00420044 16.49770081 2.00420044 14.5861969 2.00222778 C13.28037659 2.00609497 11.97455627 2.00996216 10.62916565 2.01394653 C9.31561096 2.01007935 8.00205627 2.00621216 6.6486969 2.00222778 C5.40217346 2.00351685 4.15565002 2.00480591 2.87135315 2.00613403 C1.72263733 2.00726196 0.57392151 2.00838989 -0.60960388 2.009552 C-3.17019644 1.83944488 -3.17019644 1.83944488 -4.24583435 3.13894653 Z " fill="#DECDAA" transform="translate(260.24583435058594,168.86105346679688)"/>
<path d="M0 0 C11.55 0 23.1 0 35 0 C35 13.53 35 27.06 35 41 C23.45 41 11.9 41 0 41 C0 27.47 0 13.94 0 0 Z M1 1 C1 13.21 1 25.42 1 38 C4.54030319 38.8850758 7.15157128 39.12877885 10.75390625 39.1328125 C12.40616211 39.13474609 12.40616211 39.13474609 14.09179688 39.13671875 C15.23712891 39.13285156 16.38246094 39.12898438 17.5625 39.125 C18.71169922 39.12886719 19.86089844 39.13273437 21.04492188 39.13671875 C22.14513672 39.13542969 23.24535156 39.13414062 24.37890625 39.1328125 C25.3851001 39.13168457 26.39129395 39.13055664 27.42797852 39.12939453 C30.11919397 39.10924746 30.11919397 39.10924746 33 38 C33 25.79 33 13.58 33 1 C22.44 1 11.88 1 1 1 Z " fill="#DFD1B2" transform="translate(207,218)"/>
<path d="M0 0 C1.05617271 -0.0049926 1.05617271 -0.0049926 2.13368225 -0.01008606 C3.62581731 -0.0151578 5.11796375 -0.01749431 6.61010742 -0.01733398 C8.89716232 -0.01951884 11.18373378 -0.03766674 13.47070312 -0.05664062 C14.91796709 -0.05957479 16.36523336 -0.06155943 17.8125 -0.0625 C18.49900131 -0.06968552 19.18550262 -0.07687103 19.89280701 -0.08427429 C24.74383256 -0.06085494 24.74383256 -0.06085494 26.97265625 2.16796875 C27.14754072 4.67615047 27.20449249 7.07512207 27.16796875 9.58203125 C27.16595459 10.22873779 27.16394043 10.87544434 27.16186523 11.54174805 C27.1513965 13.9588937 27.12347385 16.37593831 27.09765625 18.79296875 C27.05640625 24.19671875 27.01515625 29.60046875 26.97265625 35.16796875 C15.42265625 35.16796875 3.87265625 35.16796875 -8.02734375 35.16796875 C-8.04796875 29.57859375 -8.06859375 23.98921875 -8.08984375 18.23046875 C-8.09894775 16.46453369 -8.10805176 14.69859863 -8.11743164 12.87915039 C-8.12035089 11.4871427 -8.12289942 10.09513416 -8.125 8.703125 C-8.13267395 7.60961731 -8.13267395 7.60961731 -8.14050293 6.49401855 C-8.14081386 4.71826799 -8.0896289 2.94262667 -8.02734375 1.16796875 C-6.11444757 -0.74492743 -2.60510292 0.00421048 0 0 Z M-7.02734375 2.16796875 C-7.04796875 7.26234375 -7.06859375 12.35671875 -7.08984375 17.60546875 C-7.09894775 19.21478271 -7.10805176 20.82409668 -7.11743164 22.48217773 C-7.1199292 23.73844971 -7.12242676 24.99472168 -7.125 26.2890625 C-7.13023682 27.58255615 -7.13547363 28.8760498 -7.14086914 30.20874023 C-7.36731307 33.05449279 -7.36731307 33.05449279 -6.02734375 34.16796875 C-3.82083719 34.26809276 -1.61111989 34.29878055 0.59765625 34.30078125 C1.25975098 34.30173798 1.9218457 34.3026947 2.60400391 34.30368042 C4.00618586 34.30436201 5.40837095 34.30250917 6.81054688 34.29833984 C8.96361338 34.29299121 11.11647127 34.29828545 13.26953125 34.3046875 C14.62890671 34.30402671 15.98828205 34.30274554 17.34765625 34.30078125 C18.59289062 34.29965332 19.838125 34.29852539 21.12109375 34.29736328 C23.87171056 34.49369002 23.87171056 34.49369002 24.97265625 33.16796875 C25.060566 30.87645458 25.07959663 28.58224351 25.0703125 26.2890625 C25.06781494 25.03279053 25.06531738 23.77651855 25.06274414 22.48217773 C25.05364014 20.87286377 25.04453613 19.2635498 25.03515625 17.60546875 C25.01453125 12.51109375 24.99390625 7.41671875 24.97265625 2.16796875 C14.41265625 2.16796875 3.85265625 2.16796875 -7.02734375 2.16796875 Z " fill="#E7DABE" transform="translate(215.02734375,169.83203125)"/>
<path d="M0 0 C0.99 0.33 1.98 0.66 3 1 C1.37521414 2.64604474 -0.27605077 4.26596961 -1.9375 5.875 C-2.85402344 6.77992188 -3.77054688 7.68484375 -4.71484375 8.6171875 C-11.08283646 13.87331636 -19.91353956 13.24464385 -27.72265625 12.9765625 C-28.70874374 12.95153656 -29.69483124 12.92651062 -30.71080017 12.90072632 C-33.82842074 12.81923263 -36.94533915 12.72237362 -40.0625 12.625 C-42.1894254 12.56668813 -44.31637875 12.50938654 -46.44335938 12.453125 C-51.62930253 12.31375995 -56.8146735 12.16062291 -62 12 C-62 11.01 -62 10.02 -62 9 C-60 7.3125 -60 7.3125 -58 6 C-58 6.99 -58 7.98 -58 9 C-51.0946433 8.90769715 -44.18963699 8.80038683 -37.28466797 8.68261719 C-34.93543801 8.64432334 -32.58614934 8.60947121 -30.23681641 8.578125 C-26.86078906 8.53248373 -23.48516609 8.47448701 -20.109375 8.4140625 C-19.05820496 8.40251129 -18.00703491 8.39096008 -16.92401123 8.37905884 C-15.45293915 8.3492543 -15.45293915 8.3492543 -13.95214844 8.31884766 C-13.09055115 8.30552399 -12.22895386 8.29220032 -11.34124756 8.2784729 C-8.83204596 7.98002319 -7.17274086 7.2596594 -5 6 C-5 5.34 -5 4.68 -5 4 C-4.34 4 -3.68 4 -3 4 C-3 3.34 -3 2.68 -3 2 C-2.01 2 -1.02 2 0 2 C0 1.34 0 0.68 0 0 Z " fill="#4D5D51" transform="translate(82,179)"/>
<path d="M0 0 C5.875 1.875 5.875 1.875 7 3 C8.50316769 3.1224331 10.01188167 3.17776285 11.51977539 3.20532227 C12.96115623 3.2352401 12.96115623 3.2352401 14.43165588 3.26576233 C15.476436 3.28247482 16.52121613 3.29918732 17.59765625 3.31640625 C18.66165146 3.33718735 19.72564667 3.35796844 20.82188416 3.37937927 C24.2353544 3.44499254 27.64890429 3.50381423 31.0625 3.5625 C33.37045109 3.60567403 35.678394 3.64928794 37.98632812 3.69335938 C43.65746682 3.80068584 49.32868552 3.90242992 55 4 C55 3.01 55 2.02 55 1 C58.47899158 2.39159663 59.48052501 3.63251488 61 7 C53.84718723 7.21940543 46.6940052 7.41420394 39.54003906 7.59204102 C37.10726824 7.65540455 34.67463643 7.724366 32.2421875 7.79907227 C28.74240405 7.9055812 25.24261188 7.99183903 21.7421875 8.07421875 C20.65759247 8.11157639 19.57299744 8.14893402 18.45553589 8.18742371 C12.87169668 8.29819908 8.76948425 8.28559112 4 5 C1.625 2.3125 1.625 2.3125 0 0 Z " fill="#647468" transform="translate(419,184)"/>
<path d="M0 0 C3.19540676 0.9401362 4.80062945 2.49504273 7.17578125 4.8203125 C10.85523038 8.31332158 14.56902199 11.431367 18.66796875 14.41015625 C20.76090543 15.99673728 22.5834458 17.76715743 24.36328125 19.6953125 C20.36328125 19.6953125 20.36328125 19.6953125 18.11328125 17.8203125 C16.36328125 15.6953125 16.36328125 15.6953125 16.36328125 13.6953125 C15.53828125 13.4478125 14.71328125 13.2003125 13.86328125 12.9453125 C9.83954654 11.50826439 6.14349101 9.67176735 2.36328125 7.6953125 C2.36328125 6.7053125 2.36328125 5.7153125 2.36328125 4.6953125 C-1.78818409 6.58060299 -1.78818409 6.58060299 -5.32421875 9.3828125 C-5.75734375 9.8159375 -6.19046875 10.2490625 -6.63671875 10.6953125 C-7.62671875 10.6953125 -8.61671875 10.6953125 -9.63671875 10.6953125 C-9.88679688 11.28957031 -10.136875 11.88382813 -10.39453125 12.49609375 C-11.80738028 14.99745854 -13.20582999 16.19037716 -15.51171875 17.8828125 C-16.18976563 18.39199219 -16.8678125 18.90117188 -17.56640625 19.42578125 C-19.64809776 20.7022902 -21.26134415 21.21927589 -23.63671875 21.6953125 C-24.62671875 22.0253125 -25.61671875 22.3553125 -26.63671875 22.6953125 C-26.63671875 22.0353125 -26.63671875 21.3753125 -26.63671875 20.6953125 C-25.18725586 19.38598633 -25.18725586 19.38598633 -23.1640625 17.90234375 C-22.42865234 17.35384766 -21.69324219 16.80535156 -20.93554688 16.24023438 C-20.15630859 15.66853516 -19.37707031 15.09683594 -18.57421875 14.5078125 C-14.02059183 11.1638037 -9.74483038 7.91836551 -5.890625 3.76953125 C-3.77514808 1.60077159 -2.98011544 0.78586748 0 0 Z " fill="#C29F66" transform="translate(248.63671875,65.3046875)"/>
<path d="M0 0 C11.22 0 22.44 0 34 0 C34 0.66 34 1.32 34 2 C34.61931396 1.99476318 35.23862793 1.98952637 35.87670898 1.98413086 C38.73029533 1.96311927 41.58386531 1.95026386 44.4375 1.9375 C45.89833008 1.92493164 45.89833008 1.92493164 47.38867188 1.91210938 C52.57859619 1.89475177 57.60391107 2.09981943 62.7512207 2.75268555 C67.82966919 3.3111991 72.96208181 3.3657078 78.06640625 3.51757812 C79.34451172 3.56881836 79.34451172 3.56881836 80.6484375 3.62109375 C81.41333496 3.6461499 82.17823242 3.67120605 82.96630859 3.69702148 C85 4 85 4 88 6 C83.68729764 5.85980449 79.37489539 5.71181808 75.0625 5.5625 C73.85013672 5.52318359 72.63777344 5.48386719 71.38867188 5.44335938 C61.22059396 5.08513441 61.22059396 5.08513441 56.68359375 4.4921875 C52.4836617 3.97113419 48.2894865 3.85032753 44.0625 3.75390625 C42.96844093 3.72886772 42.96844093 3.72886772 41.85227966 3.70332336 C38.81551497 3.63728932 35.77872298 3.57605399 32.74169922 3.52319336 C21.71400206 3.32297316 10.93108221 2.47967418 0 1 C0 0.67 0 0.34 0 0 Z " fill="#495C4F" transform="translate(351,313)"/>
<path d="M0 0 C7.32418758 -0.05146045 14.64832719 -0.08604587 21.97265625 -0.10986328 C24.45509584 -0.11981101 26.93752407 -0.13337397 29.41992188 -0.15087891 C41.48445601 -0.23371295 53.49673046 -0.28837022 65.515625 0.8828125 C66.32723083 0.96079071 67.13883667 1.03876892 67.97503662 1.11911011 C71.74868538 1.54207984 74.67780054 2.19086384 78 4 C70.90973324 3.73390743 63.81948501 3.46732475 56.72924805 3.20043945 C54.32951246 3.11016376 51.92977303 3.01999045 49.5300293 2.92993164 C33.01904272 2.31020704 16.50907138 1.66886152 0 1 C0 0.67 0 0.34 0 0 Z " fill="#DECBA6" transform="translate(282,299)"/>
<path d="M0 0 C0.33 0.99 0.66 1.98 1 3 C0.35125916 3.38005692 -0.29748169 3.76011383 -0.96588135 4.15168762 C-3.22570051 5.8402016 -3.22570051 5.8402016 -3.51898193 8.52470398 C-3.52786438 9.53064102 -3.53674683 10.53657806 -3.54589844 11.57299805 C-3.56561707 12.71395432 -3.58533569 13.85491058 -3.60565186 15.03044128 C-3.60688049 16.26176285 -3.60810913 17.49308441 -3.609375 18.76171875 C-3.62591125 20.02264847 -3.64244751 21.28357819 -3.65948486 22.5827179 C-3.69987159 25.93169254 -3.72316103 29.27990506 -3.73822021 32.62902832 C-3.75778424 36.04776518 -3.79975482 39.46621874 -3.83984375 42.88476562 C-3.91390843 49.58977483 -3.96544558 56.29467712 -4 63 C-4.33 63 -4.66 63 -5 63 C-6.08387936 52.17665362 -6.28388262 41.36512121 -6.35009766 30.49511719 C-6.36681927 28.48393311 -6.39431549 26.47281216 -6.43212891 24.46191406 C-6.48677209 21.52638732 -6.50872806 18.59221577 -6.5234375 15.65625 C-6.54610687 14.76039185 -6.56877625 13.86453369 -6.59213257 12.94152832 C-6.57665719 8.38815857 -6.49643573 6.61114878 -3.52978516 2.95898438 C-2.69495605 2.31251953 -1.86012695 1.66605469 -1 1 C-0.67 0.67 -0.34 0.34 0 0 Z " fill="#DECFB2" transform="translate(100,185)"/>
<path d="M0 0 C0 0.33 0 0.66 0 1 C-1.31266846 1.07516846 -1.31266846 1.07516846 -2.65185547 1.15185547 C-22.73017532 2.24152835 -22.73017532 2.24152835 -42.75 4.0625 C-43.4497998 4.14161621 -44.14959961 4.22073242 -44.87060547 4.30224609 C-48.3473638 4.71799328 -48.3473638 4.71799328 -51.75195312 5.50927734 C-54.89590553 6.19556582 -57.95649837 6.22416184 -61.171875 6.31640625 C-62.1955014 6.3475779 -62.1955014 6.3475779 -63.23980713 6.37937927 C-65.40977356 6.44452052 -67.57985624 6.50359404 -69.75 6.5625 C-71.22527221 6.60571897 -72.70053287 6.64933432 -74.17578125 6.69335938 C-77.78373166 6.80016518 -81.39181133 6.90153153 -85 7 C-85 6.67 -85 6.34 -85 6 C-84.40985107 5.94465088 -83.81970215 5.88930176 -83.21166992 5.83227539 C-80.53658792 5.57932313 -77.86205397 5.320973 -75.1875 5.0625 C-73.7943457 4.93198242 -73.7943457 4.93198242 -72.37304688 4.79882812 C-71.0340332 4.66831055 -71.0340332 4.66831055 -69.66796875 4.53515625 C-68.84578857 4.456604 -68.0236084 4.37805176 -67.17651367 4.29711914 C-64.82512578 4.04448955 -64.82512578 4.04448955 -62 3 C-60.44448944 2.8643887 -58.88458022 2.77598304 -57.32421875 2.71875 C-56.41349609 2.68136719 -55.50277344 2.64398438 -54.56445312 2.60546875 C-53.14036133 2.55326172 -53.14036133 2.55326172 -51.6875 2.5 C-44.83018639 2.29479928 -44.83018639 2.29479928 -38.02734375 1.50390625 C-33.33558592 0.72295559 -28.62272641 0.62406845 -23.875 0.4375 C-22.85269287 0.3950415 -21.83038574 0.35258301 -20.77709961 0.30883789 C-13.84700712 0.0349408 -6.93571161 -0.13423958 0 0 Z " fill="#445548" transform="translate(122,314)"/>
<path d="M0 0 C5.15827629 2.63401343 9.08650851 5.74891877 13.34375 9.65625 C16.48509182 12.4280222 19.75318463 14.99590404 23.0625 17.5625 C34.08946858 26.13804661 34.08946858 26.13804661 38 30 C38 30.33 38 30.66 38 31 C31.63265306 30.63265306 31.63265306 30.63265306 28.5625 27.5625 C27 25 27 25 27 23 C26.071875 22.731875 25.14375 22.46375 24.1875 22.1875 C21.14326355 21.0533727 20.01861393 20.40311183 18 18 C16.32614543 16.25919124 15.16941862 15.08470931 13 14 C13 13.34 13 12.68 13 12 C12.34 12 11.68 12 11 12 C10.443125 11.278125 9.88625 10.55625 9.3125 9.8125 C7.30413144 7.36988959 5.80577556 6.04732947 3.25 4.3125 C2.1775 3.549375 1.105 2.78625 0 2 C0 1.34 0 0.68 0 0 Z " fill="#DDCBA7" transform="translate(308,114)"/>
<path d="M0 0 C0.99 0.33 1.98 0.66 3 1 C-7.35574462 9.80814527 -17.81656639 18.46634661 -28.44140625 26.94921875 C-31.2822852 29.22625913 -34.11306282 31.51509315 -36.9375 33.8125 C-37.83339844 34.54082031 -38.72929687 35.26914063 -39.65234375 36.01953125 C-41.95659164 37.89319263 -41.95659164 37.89319263 -43.69140625 39.76171875 C-45 41 -45 41 -47 41 C-46.8125 39.1875 -46.8125 39.1875 -46 37 C-43.36425528 35.12723402 -41.07007492 34.02335831 -38 33 C-38 32.34 -38 31.68 -38 31 C-37.34 31 -36.68 31 -36 31 C-36 30.34 -36 29.68 -36 29 C-35.01 29 -34.02 29 -33 29 C-33 28.34 -33 27.68 -33 27 C-32.34 27 -31.68 27 -31 27 C-31 26.34 -31 25.68 -31 25 C-30.34 25 -29.68 25 -29 25 C-29 24.34 -29 23.68 -29 23 C-27.61334028 22.0191919 -26.21837127 21.04814863 -24.78515625 20.13671875 C-22.94840418 18.96714577 -21.15722193 17.75101972 -19.375 16.5 C-18.82585937 16.1184375 -18.27671875 15.736875 -17.7109375 15.34375 C-15.90593146 13.98114397 -15.90593146 13.98114397 -14.109375 12.109375 C-11.81420428 9.81420428 -9.40179677 7.78652277 -6.875 5.75 C-5.57175781 4.69039062 -5.57175781 4.69039062 -4.2421875 3.609375 C-2 2 -2 2 0 2 C0 1.34 0 0.68 0 0 Z " fill="#A2A9A3" transform="translate(232,57)"/>
<path d="M0 0 C3.90001146 1.69317571 7.07308136 4.24832785 10.375 6.875 C10.98714355 7.3582373 11.59928711 7.84147461 12.22998047 8.33935547 C17.21932172 12.30864229 22.04695714 16.44862959 26.85742188 20.63134766 C32.36039878 25.38320881 38.11532215 29.73199189 44 34 C43.505 34.99 43.505 34.99 43 36 C39.63330022 34.54619782 37.38580254 33.50154331 35.125 30.5625 C32.28685896 27.1400358 29.02132099 25.74712732 25 24 C25 23.34 25 22.68 25 22 C24.21625 21.7525 23.4325 21.505 22.625 21.25 C19.67682892 19.84610901 19.0975223 18.99324263 18 16 C17.34 16 16.68 16 16 16 C16 15.01 16 14.02 16 13 C15.278125 12.731875 14.55625 12.46375 13.8125 12.1875 C10.99052179 10.99599809 8.51659576 9.74763594 6 8 C5.67 7.01 5.34 6.02 5 5 C4.01 4.67 3.02 4.34 2 4 C2 3.34 2 2.68 2 2 C1.34 2 0.68 2 0 2 C0 1.34 0 0.68 0 0 Z " fill="#DFCAA8" transform="translate(346,145)"/>
<path d="M0 0 C7.14918041 -0.0767712 14.2982525 -0.12889905 21.44775391 -0.16479492 C23.87422661 -0.17977713 26.30067272 -0.20016992 28.72705078 -0.22631836 C54.59792872 -0.49791465 54.59792872 -0.49791465 66 3 C66 3.33 66 3.66 66 4 C55.77 3.67 45.54 3.34 35 3 C35 2.34 35 1.68 35 1 C23.45 1 11.9 1 0 1 C0 0.67 0 0.34 0 0 Z " fill="#C2C7C2" transform="translate(350,312)"/>
<path d="M0 0 C0.99 0.33 1.98 0.66 3 1 C-1.419505 4.89337345 -5.97791346 8.5703427 -10.625 12.1875 C-16.59937238 16.84270912 -22.4079972 21.66380254 -28.16015625 26.58984375 C-35.71312804 33 -35.71312804 33 -38 33 C-38 32.34 -38 31.68 -38 31 C-37.34 31 -36.68 31 -36 31 C-36 30.34 -36 29.68 -36 29 C-34.35 28.34 -32.7 27.68 -31 27 C-31 26.34 -31 25.68 -31 25 C-26.52941176 21 -26.52941176 21 -24 21 C-24 20.34 -24 19.68 -24 19 C-22.35 18.34 -20.7 17.68 -19 17 C-19 16.34 -19 15.68 -19 15 C-17.20703125 13.34375 -17.20703125 13.34375 -14.8125 11.5 C-14.03519531 10.8915625 -13.25789063 10.283125 -12.45703125 9.65625 C-10.0324386 8.0218664 -7.74726295 6.9759371 -5 6 C-5 5.34 -5 4.68 -5 4 C-2.6875 1.8125 -2.6875 1.8125 0 0 Z " fill="#9CA79B" transform="translate(156,119)"/>
<path d="M0 0 C0.99 0.33 1.98 0.66 3 1 C1.37521414 2.64604474 -0.27605077 4.26596961 -1.9375 5.875 C-2.85402344 6.77992188 -3.77054688 7.68484375 -4.71484375 8.6171875 C-11.08283646 13.87331636 -19.91353956 13.24464385 -27.72265625 12.9765625 C-28.70874374 12.95153656 -29.69483124 12.92651062 -30.71080017 12.90072632 C-33.82842074 12.81923263 -36.94533915 12.72237362 -40.0625 12.625 C-42.1894254 12.56668813 -44.31637875 12.50938654 -46.44335938 12.453125 C-51.62930253 12.31375995 -56.8146735 12.16062291 -62 12 C-62 11.01 -62 10.02 -62 9 C-60 7.3125 -60 7.3125 -58 6 C-58.66 7.65 -59.32 9.3 -60 11 C-53.09444919 10.95838783 -46.18970806 10.88611795 -39.28466797 10.79248047 C-36.93545848 10.76424712 -34.58615359 10.74304442 -32.23681641 10.72900391 C-28.86050482 10.70760776 -25.48534333 10.66097263 -22.109375 10.609375 C-21.05820496 10.60814636 -20.00703491 10.60691772 -18.92401123 10.60565186 C-13.23963907 10.6265771 -13.23963907 10.6265771 -8.43066406 7.96191406 C-7.95854492 7.31448242 -7.48642578 6.66705078 -7 6 C-6.34 6 -5.68 6 -5 6 C-5 5.34 -5 4.68 -5 4 C-4.34 4 -3.68 4 -3 4 C-3 3.34 -3 2.68 -3 2 C-2.01 2 -1.02 2 0 2 C0 1.34 0 0.68 0 0 Z " fill="#AAAFA9" transform="translate(82,179)"/>
<path d="M0 0 C3.8991214 2.19768661 7.21559266 4.73022018 10.625 7.625 C11.68456727 8.51861889 12.74447063 9.41183941 13.8046875 10.3046875 C14.60277832 10.97902832 14.60277832 10.97902832 15.41699219 11.66699219 C22.12457927 17.31526878 28.9188323 22.82608091 36 28 C32.84150454 29.05283182 31.969245 29.29904469 29 28 C27.9935725 26.33720673 26.99414593 24.67016516 26 23 C24.35394174 21.96642853 22.69036558 20.95939668 21 20 C21 19.34 21 18.68 21 18 C20.34 18 19.68 18 19 18 C19 17.34 19 16.68 19 16 C18.01 16 17.02 16 16 16 C14.29080139 14.37697947 12.63057806 12.70199023 11 11 C8.11041524 8.61735994 5.17491052 6.3026047 2.23046875 3.98828125 C1.49441406 3.33214844 0.75835937 2.67601562 0 2 C0 1.34 0 0.68 0 0 Z " fill="#A0ACA2" transform="translate(410,133)"/>
<path d="M0 0 C5.59347798 3.49096498 10.5469267 7.27007374 15.40625 11.71875 C19.12933646 14.99327183 23.03446599 18.01828047 26.9519043 21.05541992 C30.70069579 23.96367999 34.37074066 26.94349175 38 30 C33.91071822 30 31.92628848 27.88880862 28.875 25.4375 C28.00548706 24.75240356 28.00548706 24.75240356 27.1184082 24.0534668 C25.94971 23.13239472 24.78309451 22.20867338 23.61865234 21.28222656 C21.4946728 19.59970159 19.34020919 17.9580264 17.1875 16.3125 C13.58823653 13.52042429 10.18253328 10.55716361 6.82421875 7.48046875 C5.05241425 5.90848657 5.05241425 5.90848657 2.83203125 5.05078125 C1 4 1 4 0.25 1.875 C0.1675 1.25625 0.085 0.6375 0 0 Z " fill="#B3BAB4" transform="translate(372,102)"/>
<path d="M0 0 C4.96622349 -0.02465098 9.93241166 -0.04283649 14.89868164 -0.05493164 C16.58944316 -0.0599719 18.28020029 -0.06680405 19.97094727 -0.07543945 C22.39600707 -0.08751857 24.82100944 -0.09323123 27.24609375 -0.09765625 C28.38672523 -0.10539818 28.38672523 -0.10539818 29.55039978 -0.11329651 C31.3673257 -0.11349238 33.18413127 -0.06197277 35 0 C36 1 36 1 36.11352539 4.32641602 C36.11336629 5.80225556 36.10767314 7.27810069 36.09765625 8.75390625 C36.0962413 9.52935287 36.09482635 10.3047995 36.09336853 11.10374451 C36.08775345 13.59003494 36.07519846 16.0762366 36.0625 18.5625 C36.05748694 20.24413933 36.0529237 21.92578006 36.04882812 23.60742188 C36.03777913 27.73831566 36.02050445 31.86914276 36 36 C35.67 36 35.34 36 35 36 C34.97494385 35.00556885 34.9498877 34.0111377 34.92407227 32.98657227 C34.83015118 29.30951253 34.72989381 25.6326485 34.62768555 21.95581055 C34.58427854 20.362107 34.54260781 18.7683552 34.50268555 17.17456055 C34.44512193 14.88836092 34.38138851 12.60240551 34.31640625 10.31640625 C34.29969376 9.59973282 34.28298126 8.88305939 34.26576233 8.14466858 C34.44981346 4.78472618 34.44981346 4.78472618 33 2 C30.55169574 1.91156207 28.13179401 1.88471248 25.68359375 1.90234375 C24.95253922 1.9037587 24.22148468 1.90517365 23.46827698 1.90663147 C21.12464368 1.91224592 18.78110461 1.92480078 16.4375 1.9375 C14.85221492 1.94251314 13.26692834 1.94707637 11.68164062 1.95117188 C7.7877239 1.96222003 3.89387795 1.97949428 0 2 C0 1.34 0 0.68 0 0 Z " fill="#C5A56E" transform="translate(207,169)"/>
<path d="M0 0 C0 0.33 0 0.66 0 1 C-5.31207248 1.74668723 -10.4042139 2.11933785 -15.78125 2.09765625 C-16.48020386 2.0962413 -17.17915771 2.09482635 -17.89929199 2.09336853 C-20.09957429 2.0878367 -22.29974923 2.07529777 -24.5 2.0625 C-26.00520685 2.05747616 -27.51041532 2.05291482 -29.015625 2.04882812 C-32.67711735 2.03788977 -36.33854817 2.02067359 -40 2 C-40 2.66 -40 3.32 -40 4 C-44.62 4 -49.24 4 -54 4 C-53.67 3.34 -53.34 2.68 -53 2 C-47.56382473 1.07092186 -42.16549096 0.81175051 -36.66015625 0.68359375 C-35.89376328 0.66281265 -35.1273703 0.64203156 -34.3377533 0.62062073 C-32.72855315 0.57769166 -31.11930267 0.53661283 -29.51000977 0.49731445 C-27.07230754 0.43773969 -24.63479976 0.37270578 -22.19726562 0.30664062 C-20.62240417 0.26530628 -19.04753457 0.22428051 -17.47265625 0.18359375 C-16.39879417 0.15548866 -16.39879417 0.15548866 -15.30323792 0.1268158 C-10.20094673 0.00339684 -5.10378592 -0.01474992 0 0 Z " fill="#B6BCB6" transform="translate(150,311)"/>
<path d="M0 0 C2.0625 1.8125 2.0625 1.8125 4 4 C4.804375 4.433125 5.60875 4.86625 6.4375 5.3125 C9.9868355 7.64986728 11.6643586 10.46317159 14 14 C9.1875356 11.93913289 5.63976986 8.32491529 1.75390625 4.8984375 C-0.81257529 2.85625743 -0.81257529 2.85625743 -3.578125 2.5078125 C-6.66916304 3.1359912 -8.03752573 4.34070239 -10.3125 6.5 C-11.35857422 7.47453125 -11.35857422 7.47453125 -12.42578125 8.46875 C-12.94527344 8.9740625 -13.46476563 9.479375 -14 10 C-14 7 -14 7 -12.125 4.8125 C-10 3 -10 3 -8 3 C-8 2.34 -8 1.68 -8 1 C-5.15916359 -0.42041821 -3.14522722 -0.31452272 0 0 Z " fill="#9EA8A1" transform="translate(252,46)"/>
<path d="M0 0 C0 0.33 0 0.66 0 1 C-2.05078125 1.22786458 -4.1015625 1.45572917 -6.15234375 1.68359375 C-8.01140229 1.81886614 -8.01140229 1.81886614 -9 3 C-19.98247771 5.14025526 -30.8562368 5.22976831 -42 5 C-42 4.67 -42 4.34 -42 4 C-41.00097656 3.93941406 -40.00195312 3.87882812 -38.97265625 3.81640625 C-37.68230469 3.73261719 -36.39195313 3.64882813 -35.0625 3.5625 C-33.77472656 3.48128906 -32.48695312 3.40007812 -31.16015625 3.31640625 C-28.13976043 3.35080812 -28.13976043 3.35080812 -27 2 C-24.53905709 1.58984285 -22.09970348 1.23982665 -19.625 0.9375 C-18.90634766 0.84807129 -18.18769531 0.75864258 -17.44726562 0.66650391 C-11.61623283 -0.01621068 -5.87044109 -0.22387275 0 0 Z " fill="#CCCFCC" transform="translate(105,312)"/>
<path d="M0 0 C0.33 0.66 0.66 1.32 1 2 C0.51789063 2.38671875 0.03578125 2.7734375 -0.4609375 3.171875 C-1.09257813 3.69265625 -1.72421875 4.2134375 -2.375 4.75 C-3.00148438 5.26046875 -3.62796875 5.7709375 -4.2734375 6.296875 C-6.08312318 8.08199481 -7.00117455 9.67949644 -8 12 C-9.32 12 -10.64 12 -12 12 C-11.67 13.65 -11.34 15.3 -11 17 C-18.625 18 -18.625 18 -22 18 C-14.78816969 11.8359472 -7.56693908 5.72897455 0 0 Z " fill="#7E8C82" transform="translate(67,149)"/>
<path d="M0 0 C0.66 0.33 1.32 0.66 2 1 C1.34 1.66 0.68 2.32 0 3 C-0.6425235 5.06874034 -0.6425235 5.06874034 -1 7 C-2.98 7.33 -4.96 7.66 -7 8 C-7 8.66 -7 9.32 -7 10 C-7.99 10.33 -8.98 10.66 -10 11 C-10.268125 11.804375 -10.53625 12.60875 -10.8125 13.4375 C-12 16 -12 16 -14.9375 17.3125 C-18 18 -18 18 -21 18 C-19.38050958 16.49405319 -17.75424026 14.99539332 -16.125 13.5 C-15.22007812 12.6646875 -14.31515625 11.829375 -13.3828125 10.96875 C-11 9 -11 9 -9 9 C-9 8.34 -9 7.68 -9 7 C-7.03125 5.2734375 -7.03125 5.2734375 -4.5 3.375 C-3.6646875 2.74335937 -2.829375 2.11171875 -1.96875 1.4609375 C-1.3190625 0.97882812 -0.669375 0.49671875 0 0 Z " fill="#A0A9A1" transform="translate(195,44)"/>
<path d="M0 0 C5.17400087 2.642043 9.10988054 5.77402372 13.37890625 9.6953125 C18.36043693 14.07549596 23.7064454 18.0073344 29 22 C25.25 23.125 25.25 23.125 23 22 C23 21.01 23 20.02 23 19 C22.44828125 18.75765625 21.8965625 18.5153125 21.328125 18.265625 C18.49209081 16.72388829 16.22157999 14.82612719 13.75 12.75 C9.72440958 9.39444073 5.64922629 6.20616919 1.36328125 3.19140625 C0.91339844 2.79824219 0.46351563 2.40507813 0 2 C0 1.34 0 0.68 0 0 Z " fill="#BAC1BB" transform="translate(343,79)"/>
<path d="M0 0 C0.99 0.33 1.98 0.66 3 1 C-2.75 6 -2.75 6 -5 6 C-5 6.66 -5 7.32 -5 8 C-7.0897227 9.79539556 -9.17842082 11.47061442 -11.375 13.125 C-12.27992188 13.82689453 -12.27992188 13.82689453 -13.203125 14.54296875 C-17.73858874 18 -17.73858874 18 -20 18 C-20 18.66 -20 19.32 -20 20 C-20.99 20.33 -21.98 20.66 -23 21 C-23 20.34 -23 19.68 -23 19 C-22.34 19 -21.68 19 -21 19 C-21 18.34 -21 17.68 -21 17 C-20.34 17 -19.68 17 -19 17 C-19 16.34 -19 15.68 -19 15 C-18.34 15 -17.68 15 -17 15 C-17 14.34 -17 13.68 -17 13 C-16.01 13 -15.02 13 -14 13 C-14 12.34 -14 11.68 -14 11 C-12.34800726 9.97594055 -10.67811991 8.98065863 -9 8 C-7.36494128 6.64048377 -5.75986788 5.24405882 -4.1875 3.8125 C-3.39730469 3.09707031 -2.60710937 2.38164063 -1.79296875 1.64453125 C-1.20128906 1.10183594 -0.60960937 0.55914062 0 0 Z " fill="#AEB3AE" transform="translate(182,98)"/>
<path d="M0 0 C0.33 1.32 0.66 2.64 1 4 C-0.75570312 4.80244141 -0.75570312 4.80244141 -2.546875 5.62109375 C-7.0290388 7.86316291 -10.54505883 10.72231521 -14.25 14.0625 C-15.44181468 15.1168964 -16.63449879 16.17031102 -17.828125 17.22265625 C-18.37533203 17.70750488 -18.92253906 18.19235352 -19.48632812 18.69189453 C-21.25813351 20.22307731 -23.09562529 21.63771215 -25 23 C-25.66 22.67 -26.32 22.34 -27 22 C-18.2592679 14.27424362 -9.46850251 6.82366941 0 0 Z " fill="#B5BDB4" transform="translate(143,87)"/>
<path d="M0 0 C0.99 0.33 1.98 0.66 3 1 C-0.743686 4.19210844 -4.49717148 7.37194885 -8.26367188 10.53710938 C-9.84258715 11.86737657 -11.41391344 13.20663817 -12.984375 14.546875 C-14.29148438 15.63742188 -14.29148438 15.63742188 -15.625 16.75 C-16.40101563 17.40484375 -17.17703125 18.0596875 -17.9765625 18.734375 C-18.64429688 19.15203125 -19.31203125 19.5696875 -20 20 C-20.99 19.67 -21.98 19.34 -23 19 C-21.30729167 17.828125 -19.61458333 16.65625 -17.921875 15.484375 C-15.75722144 13.8124881 -13.9299792 11.93720758 -12 10 C-10.31200649 8.55915819 -8.60294811 7.1426746 -6.875 5.75 C-5.57175781 4.69039062 -5.57175781 4.69039062 -4.2421875 3.609375 C-2 2 -2 2 0 2 C0 1.34 0 0.68 0 0 Z " fill="#9DA59B" transform="translate(232,57)"/>
<path d="M0 0 C2.5 1.375 2.5 1.375 5 3 C5 3.66 5 4.32 5 5 C5.67546875 5.20625 6.3509375 5.4125 7.046875 5.625 C11.02681382 7.47809321 13.97132197 10.11585169 17.25 13 C17.88679688 13.5465625 18.52359375 14.093125 19.1796875 14.65625 C23.85925752 18.71851504 23.85925752 18.71851504 25 21 C22.19887786 19.69444752 19.88906884 18.24569647 17.50390625 16.28515625 C16.86259766 15.76373047 16.22128906 15.24230469 15.56054688 14.70507812 C14.90119141 14.16302734 14.24183594 13.62097656 13.5625 13.0625 C8.51304873 8.89201694 8.51304873 8.89201694 3.078125 5.2578125 C1 4 1 4 0.1875 1.8125 C0.125625 1.214375 0.06375 0.61625 0 0 Z " fill="#E6D8BE" transform="translate(273,85)"/>
<path d="M0 0 C0 3 0 3 -1.49609375 4.5 C-2.45708984 5.2425 -2.45708984 5.2425 -3.4375 6 C-6.50431929 8.37699685 -6.50431929 8.37699685 -8 12 C-11.76089192 15.65027746 -15.03003399 16.83059623 -20 18 C-16.29280982 14.18152456 -12.40120767 10.71589767 -8.3125 7.3125 C-4.04600191 3.77921854 -4.04600191 3.77921854 0 0 Z " fill="#9EA69E" transform="translate(164,69)"/>
<path d="M0 0 C0.66 0.33 1.32 0.66 2 1 C0.7260411 3.03833424 -0.61061923 5.03852126 -2 7 C-2.66 7 -3.32 7 -4 7 C-4 7.66 -4 8.32 -4 9 C-4.99 9 -5.98 9 -7 9 C-7 9.66 -7 10.32 -7 11 C-8.96466413 12.06775224 -10.96855359 13.06553465 -13 14 C-13.66 13.67 -14.32 13.34 -15 13 C-13.8803014 11.99406757 -12.7540588 10.9954151 -11.625 10 C-10.99851563 9.443125 -10.37203125 8.88625 -9.7265625 8.3125 C-8 7 -8 7 -6 7 C-5.67 6.01 -5.34 5.02 -5 4 C-3.37667033 2.61423077 -1.71275535 1.27358732 0 0 Z " fill="#D9C2A2" transform="translate(186,115)"/>
<path d="M0 0 C0.66 0.33 1.32 0.66 2 1 C-0.75 6.75 -0.75 6.75 -3 9 C-4.7015625 9.4640625 -4.7015625 9.4640625 -6.4375 9.9375 C-9.713753 10.91462809 -10.97465139 11.37896062 -13 14 C-13.66 13.67 -14.32 13.34 -15 13 C-10.06664998 8.58191098 -5.12002677 4.20104761 0 0 Z " fill="#828F86" transform="translate(103,119)"/>
<path d="M0 0 C0.66 0.33 1.32 0.66 2 1 C-4.875803 10.88650964 -4.875803 10.88650964 -11 12 C-11.99 12.33 -12.98 12.66 -14 13 C-14 12.34 -14 11.68 -14 11 C-12.71484375 9.76318359 -12.71484375 9.76318359 -10.9375 8.3984375 C-10.30585938 7.90859375 -9.67421875 7.41875 -9.0234375 6.9140625 C-8.35570312 6.40617187 -7.68796875 5.89828125 -7 5.375 C-6.33226562 4.859375 -5.66453125 4.34375 -4.9765625 3.8125 C-3.3219811 2.53610864 -1.66152632 1.26733768 0 0 Z " fill="#D7C39F" transform="translate(236,75)"/>
<path d="M0 0 C7.22992841 4.56627058 14.04612845 9.85406808 20 16 C16 16 16 16 13.75 14.125 C12 12 12 12 12 10 C11.05125 9.690625 10.1025 9.38125 9.125 9.0625 C6 8 6 8 4 7 C4 6.01 4 5.02 4 4 C2.35 3.67 0.7 3.34 -1 3 C-0.67 2.01 -0.34 1.02 0 0 Z " fill="#E2D5BD" transform="translate(253,69)"/>
<path d="M0 0 C4.02136393 0.11059313 8.04185155 0.2410528 12.0625 0.375 C13.7630957 0.42140625 13.7630957 0.42140625 15.49804688 0.46875 C21.32907596 0.67275102 26.4901386 1.03276356 32 3 C32 3.33 32 3.66 32 4 C27.0736732 3.72566664 22.14826467 3.44002525 17.22363281 3.13671875 C15.25082166 3.01542162 13.27777003 2.89804981 11.3046875 2.78125 C10.25539063 2.7090625 9.20609375 2.636875 8.125 2.5625 C7.19945312 2.50191406 6.27390625 2.44132812 5.3203125 2.37890625 C3 2 3 2 0 0 Z " fill="#ABB2AD" transform="translate(436,317)"/>
<path d="M0 0 C4 2 8 4 12 6 C12 6.66 12 7.32 12 8 C12.99 8 13.98 8 15 8 C15.33 9.65 15.66 11.3 16 13 C12.06014326 11.32651716 8.98587525 8.67405957 5.75 5.9375 C5.19570313 5.47794922 4.64140625 5.01839844 4.0703125 4.54492188 C2.69175775 3.38876943 1.34298593 2.19728462 0 1 C0 0.67 0 0.34 0 0 Z " fill="#99A39B" transform="translate(266,60)"/>
<path d="M0 0 C4.19659671 1.97756806 7.56760526 4.63224306 11.1875 7.5 C11.82880859 7.99886719 12.47011719 8.49773437 13.13085938 9.01171875 C17.8741085 12.74821701 17.8741085 12.74821701 19 15 C14.98265411 13.62262427 12.27258299 11.66973875 9 9 C8.01 8.67 7.02 8.34 6 8 C5.67 7.01 5.34 6.02 5 5 C4.01 4.67 3.02 4.34 2 4 C2 3.34 2 2.68 2 2 C1.34 2 0.68 2 0 2 C0 1.34 0 0.68 0 0 Z " fill="#E7D8BF" transform="translate(346,145)"/>
<path d="M0 0 C6.52576241 4.7681072 12.77352578 9.8494239 19 15 C15.06764531 15 13.97035951 13.45054659 11 11 C10.01 10.67 9.02 10.34 8 10 C6.29115995 8.37660195 4.62553283 6.70680947 3 5 C2.401875 4.443125 1.80375 3.88625 1.1875 3.3125 C0 2 0 2 0 0 Z " fill="#B3B8B3" transform="translate(324,63)"/>
<path d="M0 0 C0.66 0.33 1.32 0.66 2 1 C1.3503125 1.5878125 1.3503125 1.5878125 0.6875 2.1875 C-1.15274402 3.98200618 -1.15274402 3.98200618 -2.25 6.625 C-4 9 -4 9 -7.6875 9.8125 C-8.780625 9.874375 -9.87375 9.93625 -11 10 C-7.50640535 6.40365256 -3.88901869 3.16548033 0 0 Z " fill="#D1BD98" transform="translate(157,139)"/>
<path d="M0 0 C0.66 0.33 1.32 0.66 2 1 C-0.08176332 5.68396747 -2.60200159 7.0669289 -7.05859375 9.0859375 C-9.27694527 10.13039274 -11.11900687 11.43250573 -13 13 C-13.66 12.67 -14.32 12.34 -15 12 C-14.08476563 11.30132812 -13.16953125 10.60265625 -12.2265625 9.8828125 C-11.02598274 8.96361862 -9.82546514 8.04434356 -8.625 7.125 C-8.02171875 6.66480469 -7.4184375 6.20460937 -6.796875 5.73046875 C-4.41748609 3.90627059 -2.12258788 2.12258788 0 0 Z " fill="#D8C9AB" transform="translate(116,172)"/>
<path d="M0 0 C0.66 0.33 1.32 0.66 2 1 C0.40279281 5.3124594 -2.31633819 7.42143673 -6 10 C-7.32 9.67 -8.64 9.34 -10 9 C-6.7 6.03 -3.4 3.06 0 0 Z " fill="#D6BF9D" transform="translate(169,129)"/>
<path d="M0 0 C4.89079318 1.19134706 8.18482296 1.99670519 11.4375 6 C11.953125 6.99 12.46875 7.98 13 9 C13.99 10.485 13.99 10.485 15 12 C11.26427172 10.37228982 8.38341608 8.01966695 5.25 5.4375 C4.26515625 4.63183594 3.2803125 3.82617188 2.265625 2.99609375 C1.51796875 2.33738281 0.7703125 1.67867187 0 1 C0 0.67 0 0.34 0 0 Z " fill="#94A197" transform="translate(404,172)"/>
<path d="M0 0 C0.66 0.33 1.32 0.66 2 1 C-3.12991699 5.68788333 -8.25271689 10.08695618 -14 14 C-14 13.01 -14 12.02 -14 11 C-12.20703125 9.31640625 -12.20703125 9.31640625 -9.8125 7.5625 C-8.99523437 6.9540625 -8.17796875 6.345625 -7.3359375 5.71875 C-6.17964844 4.86796875 -6.17964844 4.86796875 -5 4 C-3.33001351 2.67082708 -1.66142513 1.33985898 0 0 Z " fill="#A1A6A2" transform="translate(116,152)"/>
<path d="M0 0 C6.27 0 12.54 0 19 0 C19 0.33 19 0.66 19 1 C10.09 1.99 10.09 1.99 1 3 C0.67 2.01 0.34 1.02 0 0 Z " fill="#D9C9B2" transform="translate(95,303)"/>
<path d="M0 0 C0.66 0.33 1.32 0.66 2 1 C0.46620188 2.44589269 -1.07743855 3.88134804 -2.625 5.3125 C-3.48351562 6.11300781 -4.34203125 6.91351563 -5.2265625 7.73828125 C-8.02200966 10.01794872 -10.72420916 11.51580738 -14 13 C-14 12.34 -14 11.68 -14 11 C-12.47047124 9.62517548 -10.87477094 8.32334103 -9.25 7.0625 C-8.36828125 6.37285156 -7.4865625 5.68320313 -6.578125 4.97265625 C-4.39478097 3.30206725 -2.20423948 1.64287942 0 0 Z " fill="#A0A8A2" transform="translate(99,166)"/>
<path d="M0 0 C0.99 0.33 1.98 0.66 3 1 C1.04653795 2.67268922 -0.91229814 4.33821581 -2.875 6 C-3.70837891 6.71542969 -3.70837891 6.71542969 -4.55859375 7.4453125 C-8.7734375 11 -8.7734375 11 -11 11 C-11 10.34 -11 9.68 -11 9 C-10.34 9 -9.68 9 -9 9 C-9 8.34 -9 7.68 -9 7 C-7.35 6.34 -5.7 5.68 -4 5 C-4 4.34 -4 3.68 -4 3 C-2.1875 1.3125 -2.1875 1.3125 0 0 Z " fill="#A1AAA0" transform="translate(129,141)"/>
<path d="M0 0 C2.75 0.125 2.75 0.125 6 1 C8.25 3.875 8.25 3.875 10 7 C10.99 8.485 10.99 8.485 12 10 C8.78727751 8.56006357 6.3793336 6.76981628 3.75 4.4375 C3.04359375 3.81746094 2.3371875 3.19742188 1.609375 2.55859375 C1.07828125 2.04425781 0.5471875 1.52992187 0 1 C0 0.67 0 0.34 0 0 Z " fill="#96A099" transform="translate(282,73)"/>
<path d="M0 0 C0.77730469 0.144375 1.55460938 0.28875 2.35546875 0.4375 C3.01546875 1.4275 3.67546875 2.4175 4.35546875 3.4375 C3.08703125 3.251875 3.08703125 3.251875 1.79296875 3.0625 C-3.02407782 3.58799599 -5.2987997 6.11156568 -8.64453125 9.4375 C-9.30453125 9.1075 -9.96453125 8.7775 -10.64453125 8.4375 C-9.43172464 7.08926834 -8.19855034 5.75933918 -6.95703125 4.4375 C-6.27253906 3.695 -5.58804688 2.9525 -4.8828125 2.1875 C-2.64453125 0.4375 -2.64453125 0.4375 0 0 Z " fill="#E5D4BC" transform="translate(248.64453125,65.5625)"/>
<path d="M0 0 C0.33 1.32 0.66 2.64 1 4 C0.20335937 4.38091797 0.20335937 4.38091797 -0.609375 4.76953125 C-4.3324172 6.58349524 -7.79762215 8.3313518 -11 11 C-9.52202738 7.32943063 -7.52384523 5.58914217 -4.375 3.25 C-3.55773437 2.63640625 -2.74046875 2.0228125 -1.8984375 1.390625 C-0.95871094 0.70226562 -0.95871094 0.70226562 0 0 Z " fill="#9BA19C" transform="translate(143,87)"/>
<path d="M0 0 C0.99 0.33 1.98 0.66 3 1 C1.8803014 2.00593243 0.7540588 3.0045849 -0.375 4 C-1.00148437 4.556875 -1.62796875 5.11375 -2.2734375 5.6875 C-4 7 -4 7 -6 7 C-6 7.66 -6 8.32 -6 9 C-6.99 9.33 -7.98 9.66 -9 10 C-9 9.34 -9 8.68 -9 8 C-8.34 8 -7.68 8 -7 8 C-7 7.34 -7 6.68 -7 6 C-6.34 6 -5.68 6 -5 6 C-5 5.34 -5 4.68 -5 4 C-4.34 4 -3.68 4 -3 4 C-3 3.34 -3 2.68 -3 2 C-2.01 2 -1.02 2 0 2 C0 1.34 0 0.68 0 0 Z " fill="#A3ABA4" transform="translate(168,109)"/>
<path d="M0 0 C0.66 0.33 1.32 0.66 2 1 C-1.27429093 5.33362035 -3.76986166 8.02416996 -9 10 C-9.66 9.67 -10.32 9.34 -11 9 C-7.37 6.03 -3.74 3.06 0 0 Z " fill="#E4D5BC" transform="translate(220,88)"/>
<path d="M0 0 C0.99 0.33 1.98 0.66 3 1 C0.03 3.64 -2.94 6.28 -6 9 C-6.99 8.67 -7.98 8.34 -9 8 C-7.68 7.34 -6.36 6.68 -5 6 C-5 5.34 -5 4.68 -5 4 C-4.34 4 -3.68 4 -3 4 C-3 3.34 -3 2.68 -3 2 C-2.01 2 -1.02 2 0 2 C0 1.34 0 0.68 0 0 Z " fill="#959F99" transform="translate(82,179)"/>
<path d="M0 0 C0.66 0.33 1.32 0.66 2 1 C1.34 2.65 0.68 4.3 0 6 C-2.31 6.33 -4.62 6.66 -7 7 C-4.66666667 4.66666667 -2.33333333 2.33333333 0 0 Z " fill="#D9C5A2" transform="translate(195,108)"/>
<path d="M0 0 C0 0.66 0 1.32 0 2 C-1.75 3.2890625 -1.75 3.2890625 -4 4.625 C-4.7425 5.07101563 -5.485 5.51703125 -6.25 5.9765625 C-6.8275 6.31429687 -7.405 6.65203125 -8 7 C-6.83623289 1.7358572 -5.6722772 0 0 0 Z " fill="#33473F" transform="translate(118,150)"/>
<path d="M0 0 C3.33333333 1.66666667 6.66666667 3.33333333 10 5 C10 5.99 10 6.98 10 8 C6.05205855 6.32971708 3.18203882 3.8204435 0 1 C0 0.67 0 0.34 0 0 Z " fill="#A1ABA3" transform="translate(325,108)"/>
<path d="M0 0 C4.59306496 1.4859916 7.43569245 3.85014682 11 7 C7.25 8.125 7.25 8.125 5 7 C5 6.01 5 5.02 5 4 C4.360625 3.71125 3.72125 3.4225 3.0625 3.125 C1 2 1 2 0 0 Z " fill="#9CA69F" transform="translate(361,94)"/>
<path d="M0 0 C1.3410477 0.75733274 2.67269781 1.53132736 4 2.3125 C5.11375 2.95638672 5.11375 2.95638672 6.25 3.61328125 C6.8275 4.07089844 7.405 4.52851563 8 5 C8 5.99 8 6.98 8 8 C7.401875 7.690625 6.80375 7.38125 6.1875 7.0625 C3.91043228 5.89790296 3.91043228 5.89790296 1 5 C0.67 3.35 0.34 1.7 0 0 Z " fill="#CAA66B" transform="translate(354,153)"/>
<path d="M0 0 C0 0.99 0 1.98 0 3 C-2.8125 5.75 -2.8125 5.75 -6 8 C-6.99 7.67 -7.98 7.34 -9 7 C-8.34 7 -7.68 7 -7 7 C-7 6.34 -7 5.68 -7 5 C-5.35 4.34 -3.7 3.68 -2 3 C-2 2.34 -2 1.68 -2 1 C-1.34 0.67 -0.68 0.34 0 0 Z " fill="#8D9891" transform="translate(139,133)"/>
<path d="M0 0 C0.66 0.33 1.32 0.66 2 1 C1 4 1 4 -1.9375 5.75 C-3.4534375 6.36875 -3.4534375 6.36875 -5 7 C-5.66 6.67 -6.32 6.34 -7 6 C-4.69 4.02 -2.38 2.04 0 0 Z " fill="#DCCBAB" transform="translate(178,122)"/>
<path d="M0 0 C5.78461538 3.44615385 5.78461538 3.44615385 6.875 6.25 C6.936875 7.11625 6.936875 7.11625 7 8 C6.01 7.67 5.02 7.34 4 7 C4 6.01 4 5.02 4 4 C2.35 3.67 0.7 3.34 -1 3 C-0.67 2.01 -0.34 1.02 0 0 Z " fill="#D8C19F" transform="translate(253,69)"/>
<path d="M0 0 C2.3125 -0.25 2.3125 -0.25 5 0 C6.8125 2 6.8125 2 8 4 C5.69 3.67 3.38 3.34 1 3 C0.67 2.01 0.34 1.02 0 0 Z " fill="#D6C096" transform="translate(338,141)"/>
<path d="M0 0 C0.66 0 1.32 0 2 0 C0.51218185 3.78717347 -1.61988409 5.77407001 -5 8 C-5.99 7.67 -6.98 7.34 -8 7 C-7.50628906 6.66226563 -7.01257813 6.32453125 -6.50390625 5.9765625 C-5.86324219 5.53054687 -5.22257813 5.08453125 -4.5625 4.625 C-3.92441406 4.18414062 -3.28632813 3.74328125 -2.62890625 3.2890625 C-0.86259072 2.07839147 -0.86259072 2.07839147 0 0 Z " fill="#909993" transform="translate(217,69)"/>
<path d="M0 0 C0.33 0.99 0.66 1.98 1 3 C-5.625 6 -5.625 6 -9 6 C-6.22719294 2.91910327 -3.93673644 1.31224548 0 0 Z " fill="#7B8881" transform="translate(183,56)"/>
<path d="M0 0 C0.33 0.66 0.66 1.32 1 2 C-1.52956528 5.0916909 -4.22454612 5.90931332 -8 7 C-7.67 6.34 -7.34 5.68 -7 5 C-6.34 5 -5.68 5 -5 5 C-5 4.34 -5 3.68 -5 3 C-2.5 1.375 -2.5 1.375 0 0 Z " fill="#879089" transform="translate(32,178)"/>
<path d="M0 0 C0 0.99 0 1.98 0 3 C-1.96466413 4.06775224 -3.96855359 5.06553465 -6 6 C-6.66 5.67 -7.32 5.34 -8 5 C-5.81209839 1.71814759 -4.05191042 0 0 0 Z " fill="#B18E4D" transform="translate(115,178)"/>
<path d="M0 0 C0.66 0.33 1.32 0.66 2 1 C0.35 2.98 -1.3 4.96 -3 7 C-3.33 5.68 -3.66 4.36 -4 3 C-2.68 2.01 -1.36 1.02 0 0 Z " fill="#C19F64" transform="translate(200,106)"/>
<path d="M0 0 C5.875 3.75 5.875 3.75 7 6 C4.03 5.505 4.03 5.505 1 5 C0.67 3.35 0.34 1.7 0 0 Z " fill="#79877D" transform="translate(446,162)"/>
<path d="M0 0 C0.99 0.33 1.98 0.66 3 1 C-0.465 3.97 -0.465 3.97 -4 7 C-4.33 6.01 -4.66 5.02 -5 4 C-2.6875 1.9375 -2.6875 1.9375 0 0 Z " fill="#A3B1A3" transform="translate(156,119)"/>
<path d="M0 0 C7.57142857 4 7.57142857 4 10 8 C6.01328937 6.63312778 3.11505367 4.84804907 0 2 C0 1.34 0 0.68 0 0 Z " fill="#AEB5B0" transform="translate(302,46)"/>
<path d="M0 0 C1.98 1.65 3.96 3.3 6 5 C4.125 5.625 4.125 5.625 2 6 C1.34 5.34 0.68 4.68 0 4 C0 2.68 0 1.36 0 0 Z " fill="#E3D2B2" transform="translate(335,135)"/>
<path d="M0 0 C0.66 0 1.32 0 2 0 C2 0.66 2 1.32 2 2 C2.99 2 3.98 2 5 2 C5.33 3.65 5.66 5.3 6 7 C3.00675737 5.9024777 2.15389099 5.32317108 0.75 2.375 C0.5025 1.59125 0.255 0.8075 0 0 Z " fill="#819086" transform="translate(276,66)"/>
<path d="M0 0 C0.66 0.33 1.32 0.66 2 1 C2.625 3.5625 2.625 3.5625 3 6 C-0.16115776 4.63016497 -0.9927092 4.0109362 -3 1 C-2.01 0.67 -1.02 0.34 0 0 Z " fill="#3F5748" transform="translate(418,178)"/>
<path d="M0 0 C6.875 2.75 6.875 2.75 8 5 C5.03 4.505 5.03 4.505 2 4 C2 3.34 2 2.68 2 2 C1.34 2 0.68 2 0 2 C0 1.34 0 0.68 0 0 Z " fill="#DDCCA9" transform="translate(319,124)"/>
<path d="M0 0 C1.98 0.99 1.98 0.99 4 2 C4 2.66 4 3.32 4 4 C4.99 4.33 5.98 4.66 7 5 C4 6 4 6 1.8125 5.0625 C1.214375 4.711875 0.61625 4.36125 0 4 C0 2.68 0 1.36 0 0 Z " fill="#C7A86B" transform="translate(294,104)"/>
<path d="M0 0 C0.33 0.99 0.66 1.98 1 3 C-0.32 3.33 -1.64 3.66 -3 4 C-3 4.66 -3 5.32 -3 6 C-3.66 6 -4.32 6 -5 6 C-4.75 4.125 -4.75 4.125 -4 2 C-1.9375 0.75 -1.9375 0.75 0 0 Z " fill="#485E4F" transform="translate(226,21)"/>
</svg>
